<svg xmlns="http://www.w3.org/2000/svg" xmlns:xlink="http://www.w3.org/1999/xlink" xmlns:inkscape="http://www.inkscape.org/namespaces/inkscape" version="1.1" width="411.355" height="248.43" viewBox="0 0 411.355 248.43">
<defs>
<path id="font_1_2" d="M.2939911 .64004519C.2939911 .66400149 .2939911 .6660156 .2709961 .6660156 .20899964 .60227969 .12098694 .60227969 .08898926 .60227969V.57128909C.10899353 .57128909 .16799927 .57128909 .21998596 .5972748V.07902527C.21998596 .042999269 .21699524 .0309906 .1269989 .0309906H.09498596V0C.12998963 .0029907227 .21699524 .0029907227 .25698854 .0029907227 .29699708 .0029907227 .38398744 .0029907227 .4189911 0V.0309906H.3869934C.29699708 .0309906 .2939911 .041992189 .2939911 .07902527V.64004519Z"/>
<path id="font_2_5" d="M.2889862 .63853457H.40299989V.6855469C.3619995 .6825409 .2639923 .6825409 .21798706 .6825409 .17199707 .6825409 .07398987 .6825409 .032989503 .6855469V.63853457H.14698792V.04699707H.032989503V0C.07398987 .0029907227 .17199707 .0029907227 .21798706 .0029907227 .2639923 .0029907227 .3619995 .0029907227 .40299989 0V.04699707H.2889862V.63853457Z"/>
<path id="font_2_18" d="M.11399841 .3561554V.04699707H.04499817V0C.07299805 .0009918213 .1329956 .0029907227 .17098999 .0029907227 .20999146 .0029907227 .2689972 .0009918213 .29699708 0V.04699707H.22799683V.25610353C.22799683 .36515809 .31399537 .41418458 .3769989 .41418458 .41099549 .41418458 .43199159 .39317323 .43199159 .31713868V.04699707H.36299134V0C.3909912 .0009918213 .45098878 .0029907227 .4889984 .0029907227 .5279999 .0029907227 .58699038 .0009918213 .61499026 0V.04699707H.54599V.30613709C.54599 .41119386 .49198915 .4501953 .3919983 .4501953 .29599 .4501953 .24299622 .39317323 .21699524 .34214784V.4501953L.04499817 .44218446V.39518739C.10699463 .39518739 .11399841 .39518739 .11399841 .3561554Z"/>
<path id="font_2_20" d="M.21998596 .32917787C.21998596 .34817506 .22099304 .34918214 .23498535 .36317445 .2749939 .40419007 .32699586 .41018678 .34899903 .41018678 .41600038 .41018678 .47200013 .34918214 .47200013 .22315979 .47200013 .08213806 .4019928 .030136109 .33699037 .030136109 .32299806 .030136109 .27598573 .030136109 .23098755 .08413696 .21998596 .09713745 .21998596 .09814453 .21998596 .11714172V.32917787M.21998596 .039138795C.2630005 .004135132 .30699159-.005859375 .34799195-.005859375 .49798585-.005859375 .59999087 .08413696 .59999087 .22315979 .59999087 .35617066 .5089874 .4501953 .36499024 .4501953 .2899933 .4501953 .23699951 .41918946 .21398926 .40118409V.4501953L.036987306 .44218446V.39518739C.09899902 .39518739 .10598755 .39518739 .10598755 .35717774V-.14733887H.036987306V-.19433594C.06498718-.19334412 .125-.19134522 .16299439-.19134522 .20199585-.19134522 .26098634-.19334412 .2889862-.19433594V-.14733887H.21998596V.039138795Z"/>
<path id="font_2_24" d="M.43798829 .072143558V-.005859375L.61499026 .0001373291V.0471344C.5529938 .0471344 .54599 .0471344 .54599 .086135867V.4501953L.36299134 .44218446V.39518739C.4249878 .39518739 .43199159 .39518739 .43199159 .3561859V.16514588C.43199159 .08314514 .3809967 .030136109 .30799867 .030136109 .23098755 .030136109 .22799683 .055130006 .22799683 .10914612V.4501953L.04499817 .44218446V.39518739C.10699463 .39518739 .11399841 .39518739 .11399841 .3561859V.12315369C.11399841 .01612854 .19499207-.005859375 .2939911-.005859375 .31999208-.005859375 .3919983-.005859375 .43798829 .072143558Z"/>
<path id="font_2_23" d="M.102996829 .3973236V.123184207C.102996829 .01612854 .18998719-.005859375 .26098634-.005859375 .33699037-.005859375 .38198854 .05114746 .38198854 .124176029V.17721558H.33499146V.12619019C.33499146 .058151246 .30299378 .03413391 .2749939 .03413391 .21699524 .03413391 .21699524 .09817505 .21699524 .1211853V.3973236H.36299134V.44433595H.21699524V.6352234H.16999817C.16899109 .5352783 .11999512 .43632508 .020996094 .43333436V.3973236H.102996829Z"/>
<path id="font_3_4" d="M.47499085 .62054446V.6435547H.23399353C.11299133 .6435547 .11099243 .6567688 .10699463 .67578127H.084991458L.053985597 .47554017H.07598877C.07899475 .49354554 .08799744 .555542 .100997928 .5665436 .10899353 .5725403 .18399048 .5725403 .19799805 .5725403H.4099884L.3039856 .42053224C.2769928 .38153077 .17599488 .21751404 .17599488 .029510498 .17599488 .018508912 .17599488-.021484375 .21699524-.021484375 .25898744-.021484375 .25898744 .017501831 .25898744 .030517579V.08052063C.25898744 .2295227 .2829895 .34553529 .32998658 .41253663L.47499085 .62054446Z"/>
<path id="font_3_7" d="M.27999879 .23580933C.30899049 .2737732 .35099793 .32772828 .36999513 .3487091 .41099549 .39465333 .45799256 .4016571 .48999024 .4016571V.43066407C.44699098 .4286499 .44499208 .4286499 .4059906 .4286499 .36799623 .4286499 .3659973 .4286499 .31599427 .43066407V.4016571C.32899476 .3996582 .34498597 .3936615 .34498597 .37068177 .34498597 .35369874 .33599855 .3427124 .32998658 .3347168L.2659912 .25378419 .18798828 .35668946C.18499756 .36068727 .1789856 .36968995 .1789856 .37667848 .1789856 .38267518 .18399048 .40065003 .21398926 .4016571V.43066407C.18899536 .4286499 .13798523 .4286499 .11099243 .4286499 .07798767 .4286499 .07598877 .4286499 .01499939 .43066407V.4016571C.06599426 .4016571 .084991458 .3996582 .10598755 .37268067L.22299195 .21981812C.22499085 .21781922 .22898865 .21182251 .22898865 .20883179 .22898865 .2058258 .15098572 .107925418 .14099121 .094940189 .09700012 .040985109 .052993776 .02999878 .009994507 .0289917V0C.04798889 .0019989014 .049987794 .0019989014 .09298706 .0019989014 .1309967 .0019989014 .1329956 .0019989014 .18299866 0V.0289917C.15899658 .031982423 .15499878 .04698181 .15499878 .060958864 .15499878 .07695007 .1619873 .08494568 .17199707 .09793091 .18699646 .11891174 .21998596 .15986634 .24398804 .19084168L.32598878 .0839386C.34298707 .061965944 .34298707 .05996704 .34298707 .053970338 .34298707 .04597473 .33499146 .02999878 .30799867 .0289917V0C.33399964 .0019989014 .3829956 .0019989014 .41099549 .0019989014 .44400025 .0019989014 .44599916 .0019989014 .5059967 0V.0289917C.45298768 .0289917 .43499757 .0309906 .41099549 .06295776L.27999879 .23580933Z"/>
<path id="font_1_3" d="M.1269989 .07699585 .23298645 .18003845C.3889923 .31811524 .44898988 .3721466 .44898988 .47216798 .44898988 .5860901 .35899354 .6660156 .23699951 .6660156 .12399292 .6660156 .049987794 .57411196 .049987794 .48516847 .049987794 .4291687 .099990848 .4291687 .102996829 .4291687 .11999512 .4291687 .15499878 .44117738 .15499878 .48217774 .15499878 .5081787 .13699341 .5341797 .101989749 .5341797 .09399414 .5341797 .09199524 .5341797 .08898926 .5331726 .11199951 .59806826 .1659851 .63500979 .22399903 .63500979 .31498719 .63500979 .35798646 .5541382 .35798646 .47216798 .35798646 .39215089 .30799867 .31311036 .25299073 .25108338L.06098938 .036987306C.049987794 .025985718 .049987794 .023986817 .049987794 0H.42099L.44898988 .17404175H.42399598C.4189911 .14402771 .4119873 .1000061 .4019928 .084991458 .394989 .07699585 .32899476 .07699585 .30699159 .07699585H.1269989Z"/>
<path id="font_1_1" d="M.45999146 .31976319C.45999146 .39982606 .45498658 .47988893 .41999818 .5539398 .37399293 .65000918 .2919922 .6660156 .25 .6660156 .18998719 .6660156 .116989139 .64001467 .07598877 .54693606 .04399109 .47789 .038986207 .39982606 .038986207 .31976319 .038986207 .24472046 .042999269 .15464783 .083999637 .07859802 .1269989-.0024719239 .19999695-.022460938 .24899292-.022460938 .30299378-.022460938 .3789978-.0014648438 .4229889 .09359741 .45498658 .16265869 .45999146 .2407074 .45999146 .31976319M.24899292-.00047302247C.20999146-.00047302247 .15098572 .024551392 .1329956 .12062073 .12199402 .18066406 .12199402 .2727356 .12199402 .3317871 .12199402 .39582826 .12199402 .46188355 .12998963 .5159149 .14898682 .63500979 .22399903 .64401248 .24899292 .64401248 .28199769 .64401248 .34799195 .6259918 .36698915 .52693179 .3769989 .47088624 .3769989 .39482118 .3769989 .3317871 .3769989 .25672914 .3769989 .18867493 .3659973 .12461853 .35099793 .029556275 .2939911-.00047302247 .24899292-.00047302247Z"/>
<path id="font_2_9" d="M.73599246 .6745453H.06298828L.041992189 .43370057H.08898926C.09799194 .54660037 .10798645 .62753298 .2519989 .62753298H.32899476V.04699707H.17599488V0C.22999573 .0029907227 .34098817 .0029907227 .3999939 .0029907227 .45899964 .0029907227 .56999209 .0029907227 .6239929 0V.04699707H.47099305V.62753298H.5469971C.6899872 .62753298 .69999697 .5476074 .70999148 .43370057H.7569885L.73599246 .6745453Z"/>
<path id="font_2_15" d="M.22399903 .4501953 .049987794 .44218446V.39518739C.10899353 .39518739 .115997318 .39518739 .115997318 .35617066V.04699707H.04699707V0C.07798767 .0009918213 .1269989 .0029907227 .16899109 .0029907227 .19898987 .0029907227 .25 .0009918213 .28599549 0V.04699707H.22399903V.4501953M.23399353 .6173096C.23399353 .66130068 .19799805 .6953125 .1559906 .6953125 .11299133 .6953125 .07798767 .66030886 .07798767 .6173096 .07798767 .5743103 .11299133 .53930667 .1559906 .53930667 .19799805 .53930667 .23399353 .5733032 .23399353 .6173096Z"/>
<path id="font_2_17" d="M.11399841 .3561554V.04699707H.04499817V0C.07299805 .0009918213 .1329956 .0029907227 .17098999 .0029907227 .20999146 .0029907227 .2689972 .0009918213 .29699708 0V.04699707H.22799683V.25610353C.22799683 .36515809 .31498719 .41418458 .3769989 .41418458 .41099549 .41418458 .43299867 .3941803 .43299867 .31713868V.04699707H.3639984V0C.3919983 .0009918213 .45199586 .0029907227 .48999024 .0029907227 .5289917 .0029907227 .58799746 .0009918213 .6159973 0V.04699707H.5469971V.25610353C.5469971 .36515809 .6339874 .41418458 .69599917 .41418458 .7299957 .41418458 .7519989 .3941803 .7519989 .31713868V.04699707H.68299868V0C.71099856 .0009918213 .7709961 .0029907227 .8089905 .0029907227 .84799197 .0029907227 .9069977 .0009918213 .93499758 0V.04699707H.8659973V.30613709C.8659973 .40919496 .8149872 .4501953 .71199038 .4501953 .62098696 .4501953 .56900027 .400177 .54299929 .3541565 .522995 .44718934 .43099977 .4501953 .3929901 .4501953 .30599977 .4501953 .24899292 .40518189 .21699524 .34214784V.4501953L.04499817 .44218446V.39518739C.10699463 .39518739 .11399841 .39518739 .11399841 .3561554Z"/>
<path id="font_2_13" d="M.46199037 .2179718C.48399354 .2179718 .49398805 .2179718 .49398805 .2449646 .49398805 .27598573 .48799134 .34906007 .43798829 .3991089 .40098573 .43511964 .34799195 .453125 .2789917 .453125 .11898804 .453125 .03199768 .35005189 .03199768 .22497559 .03199768 .09107971 .13198853-.005859375 .29299928-.005859375 .45098878-.005859375 .49398805 .10006714 .49398805 .11706543 .49398805 .13504029 .47499085 .13504029 .46998597 .13504029 .45298768 .13504029 .45098878 .13005066 .44499208 .11405945 .42399598 .066101077 .36698915 .03413391 .3019867 .03413391 .16099549 .03413391 .1599884 .16700745 .1599884 .2179718H.46199037M.1599884 .25097657C.1619873 .29000855 .16299439 .3320465 .18399048 .36506654 .20999146 .4051056 .25 .41711427 .2789917 .41711427 .3959961 .41711427 .397995 .28599549 .39898683 .25097657H.1599884Z"/>
<path id="font_2_3" d="M.14698792 .63853457V.04699707H.038986207V0H.46998597C.6669922 0 .81700137 .12294006 .81700137 .33676148 .81700137 .55659487 .6669922 .6855469 .46899415 .6855469H.038986207V.63853457H.14698792M.2829895 .04699707V.63853457H.42900086C.49499513 .63853457 .5779877 .6195526 .6269989 .5496063 .6619873 .49864198 .66999819 .43069459 .66999819 .33776856 .66999819 .22885132 .6579895 .17588806 .6259918 .13092041 .5779877 .06297302 .48999024 .04699707 .42900086 .04699707H.2829895Z"/>
<path id="font_2_22" d="M.21099854 .29412843C.17399597 .30111695 .10899353 .31211854 .10899353 .3591156 .10899353 .42111207 .20199585 .42111207 .22099304 .42111207 .29599 .42111207 .33399964 .39212037 .33898927 .33711244 .33999635 .32211305 .34098817 .3171234 .3619995 .3171234 .38598634 .3171234 .38598634 .32211305 .38598634 .3451233V.42510987C.38598634 .4441223 .38598634 .453125 .36799623 .453125 .3639984 .453125 .3619995 .453125 .32299806 .43411256 .29699708 .44711305 .2619934 .453125 .22200012 .453125 .19198609 .453125 .037994386 .453125 .037994386 .32211305 .037994386 .28211976 .057998659 .25512696 .07798767 .23812866 .117996219 .203125 .1559906 .1971283 .23298645 .18312073 .2689972 .17712403 .34399415 .16412354 .34399415 .10513306 .34399415 .030136109 .2519989 .030136109 .22999573 .030136109 .12399292 .030136109 .09799194 .103134158 .085998538 .14613343 .08099365 .16012573 .07598877 .16012573 .06199646 .16012573 .037994386 .16012573 .037994386 .15412903 .037994386 .13113404V.022140503C.037994386 .0031280518 .037994386-.005859375 .055999757-.005859375 .06298828-.005859375 .06498718-.005859375 .085998538 .009140015 .08699036 .009140015 .10899353 .024139405 .11199951 .026138306 .1579895-.005859375 .20999146-.005859375 .22999573-.005859375 .26098634-.005859375 .4149933-.005859375 .4149933 .14012146 .4149933 .18312073 .394989 .21812439 .3600006 .24612427 .32099916 .27511598 .2889862 .28112794 .21099854 .29412843Z"/>
<path id="font_2_21" d="M.20298767 .3371582V.4501953L.036987306 .44218446V.39518739C.09899902 .39518739 .10598755 .39518739 .10598755 .35617066V.04699707H.036987306V0C.07199097 .0009918213 .116989139 .0029907227 .16299439 .0029907227 .20098877 .0029907227 .2649994 .0029907227 .30099488 0V.04699707H.21398926V.22209168C.21398926 .2921753 .23899842 .41418458 .33898927 .41418458 .33799745 .41319276 .31999208 .39718629 .31999208 .36819459 .31999208 .3271942 .35198976 .30718995 .3809967 .30718995 .4099884 .30718995 .44198609 .32818605 .44198609 .36819459 .44198609 .42118836 .3880005 .4501953 .33599855 .4501953 .2659912 .4501953 .22599793 .40019227 .20298767 .3371582Z"/>
<path id="font_2_11" d="M.21398926 .40118409V.69433596L.036987306 .6863251V.639328C.09899902 .639328 .10598755 .639328 .10598755 .600296V0H.15299988L.20199585 .056015016C.20999146 .04814148 .25898744-.005859375 .34799195-.005859375 .49699403-.005859375 .59999087 .08413696 .59999087 .22315979 .59999087 .35617066 .5059967 .4501953 .36099244 .4501953 .28799439 .4501953 .23799134 .42118836 .21398926 .40118409M.21998596 .09902954V.3501587C.24699402 .3851776 .29499818 .41418458 .34999085 .41418458 .47200013 .41418458 .47200013 .29312135 .47200013 .22309876 .47200013 .17607117 .47200013 .12104797 .44599916 .08201599 .4169922 .041000368 .37098695 .02999878 .33898927 .02999878 .2689972 .02999878 .22999573 .08403015 .21998596 .09902954Z"/>
<path id="font_2_12" d="M.41799928 .042999269V-.006011963L.6009979 0V.04699707C.5389862 .04699707 .5319977 .04699707 .5319977 .086013797V.69433596L.35499574 .6863251V.639328C.4169922 .639328 .42399598 .639328 .42399598 .600296V.40518189C.37399293 .44418336 .32199098 .4501953 .2889862 .4501953 .14299011 .4501953 .037994386 .36218263 .037994386 .22116089 .037994386 .089141849 .12998963-.005859375 .27799989-.005859375 .33898927-.006011963 .3869934 .017990113 .41799928 .042999269M.41799928 .35316468V.103027347C.40499879 .085006717 .3639984 .02999878 .28799439 .02999878 .1659851 .02999878 .1659851 .15104676 .1659851 .2210846 .1659851 .26911927 .1659851 .32313539 .19198609 .36216737 .22099304 .40419007 .2679901 .41418458 .29899598 .41418458 .35598756 .41418458 .3959961 .38217164 .41799928 .35316468Z"/>
<path id="font_2_2" d="M.7659912 .6692505C.7659912 .68826296 .7659912 .6972656 .7480011 .6972656 .7389984 .6972656 .7369995 .69525149 .72898867 .68826296L.6629944 .6292572C.6009979 .67926028 .5339966 .6972656 .46598817 .6972656 .21699524 .6972656 .06399536 .54826357 .06399536 .34326173 .06399536 .13824463 .21699524-.0107421879 .46598817-.0107421879 .6529999-.0107421879 .7659912 .11225891 .7659912 .22724915 .7659912 .24725342 .7589874 .2482605 .74198916 .2482605 .72898867 .2482605 .7200012 .2482605 .71899417 .23124695 .71199038 .09724426 .59098818 .036254884 .48999024 .036254884 .4119873 .036254884 .32798768 .060256959 .27598573 .12124634 .22898865 .17825318 .21699524 .25325013 .21699524 .34326173 .21699524 .39926148 .21998596 .5072632 .2829895 .57325747 .34799195 .63926699 .43499757 .6502533 .4869995 .6502533 .59498599 .6502533 .6899872 .5742645 .71199038 .44725038 .71499636 .42825318 .71598818 .42625428 .7389984 .42625428 .7649994 .42625428 .7659912 .42825318 .7659912 .45425416V.6692505Z"/>
<path id="font_2_19" d="M.5419922 .21812439C.5419922 .35212709 .44999696 .453125 .2869873 .453125 .12298584 .453125 .03199768 .35112 .03199768 .21812439 .03199768 .09413147 .11999512-.005859375 .2869873-.005859375 .45498658-.005859375 .5419922 .09512329 .5419922 .21812439M.2869873 .03413391C.1599884 .03413391 .1599884 .14213562 .1599884 .22912598 .1599884 .27412416 .1599884 .32511903 .1769867 .3591156 .19599915 .39611817 .23799134 .41711427 .2869873 .41711427 .32899476 .41711427 .37098695 .40112306 .3929901 .36611939 .4139862 .3321228 .4139862 .27713014 .4139862 .22912598 .4139862 .14213562 .4139862 .03413391 .2869873 .03413391Z"/>
<path id="font_2_25" d="M.5059967 .37631227C.5119934 .39031983 .5159912 .3973236 .5799866 .3973236V.44433595C.5549927 .44232179 .526001 .44132997 .5009918 .44132997 .47599793 .44132997 .43099977 .44332887 .4099884 .44433595V.3973236C.42900086 .3973236 .45799256 .3943329 .45799256 .38632203 .45799256 .3853302 .45700074 .38331605 .45298768 .37431336L.33699037 .12416077 .20999146 .3973236H.2639923V.44433595C.23098755 .44232179 .14099121 .44132997 .13999939 .44132997 .11199951 .44132997 .066986087 .44332887 .025985718 .44433595V.3973236H.08999634L.2649994 .021087647C.2769928-.00390625 .2899933-.00390625 .30299378-.00390625 .31999208-.00390625 .32998658-.00091552737 .33999635 .020080567L.5059967 .37631227Z"/>
<path id="font_2_1" d="M.5169983 .22209168H.46998597C.46699525 .20207215 .45799256 .13800049 .44400025 .1309967 .43299867 .125 .35798646 .125 .34199525 .125H.19499207C.24198914 .16403198 .2939911 .20707703 .33898927 .2401123 .45298768 .3242035 .5169983 .37124635 .5169983 .4663086 .5169983 .5812988 .41299439 .65527346 .27198792 .65527346 .15098572 .65527346 .056991579 .593277 .056991579 .50331118 .056991579 .44430543 .10499573 .42930604 .1289978 .42930604 .16099549 .42930604 .20098877 .4513092 .20098877 .50131228 .20098877 .55329897 .15899658 .5693054 .14399719 .5733032 .17298889 .5972748 .21099854 .6082611 .24699402 .6082611 .33299256 .6082611 .3789978 .54029849 .3789978 .4653015 .3789978 .39627076 .34098817 .3282013 .2709961 .25712586L.069992069 .051986696C.056991579 .039993287 .056991579 .037994386 .056991579 .017990113V0H.48599244L.5169983 .22209168Z"/>
<path id="font_2_4" d="M.6439972 .6795349H.038986207V.63253787H.14698792V.04699707H.038986207V0C.07699585 .0029907227 .17799378 .0029907227 .22200012 .0029907227 .2709961 .0029907227 .37998963 .0029907227 .42399598 0V.04699707H.2889862V.31640626H.33898927C.43499757 .31640626 .44400025 .27349855 .44400025 .19966126H.4909973V.4804535H.44400025C.44400025 .40641786 .43598939 .36340333 .33898927 .36340333H.2889862V.63253787H.42900086C.58999636 .63253787 .61299136 .5554962 .6279907 .4384308H.6749878L.6439972 .6795349Z"/>
<path id="font_2_16" d="M.22399903 .69433596 .04699707 .6863251V.639328C.10899353 .639328 .115997318 .639328 .115997318 .6003113V.04699707H.04699707V0C.07899475 .0009918213 .1269989 .0029907227 .16999817 .0029907227 .21299744 .0029907227 .25898744 .0009918213 .29299928 0V.04699707H.22399903V.69433596Z"/>
<path id="font_2_10" d="M.37399293 .077056888C.37399293 .04598999 .37399293 0 .47799684 0H.526001C.54599 0 .55799868 0 .55799868 .023986817 .55799868 .04699707 .54499819 .04699707 .5319977 .04699707 .47099305 .04798889 .47099305 .061019899 .47099305 .08406067V.2993164C.47099305 .38816834 .3999939 .453125 .25099183 .453125 .19400025 .453125 .07199097 .44911195 .07199097 .36120606 .07199097 .317276 .10699463 .29830934 .13398743 .29830934 .16499329 .29830934 .19699097 .3192749 .19699097 .36120606 .19699097 .39115907 .17799378 .40812684 .1749878 .41012574 .20298767 .41612245 .23498535 .41711427 .24699402 .41711427 .32199098 .41711427 .35699464 .3751831 .35699464 .2993164V.2653656C.28599549 .26237489 .03199768 .2533722 .03199768 .10821533 .03199768 .012130737 .1559906-.005859375 .22499085-.005859375 .30499269-.006011963 .35198976 .034988405 .37399293 .077056888M.35699464 .234375V.13917542C.35699464 .042999269 .2649994 .02999878 .23999024 .02999878 .18899536 .02999878 .14898682 .06503296 .14898682 .1091156 .14898682 .21733094 .30699159 .23135376 .35699464 .234375Z"/>
<path id="font_3_6" d="M.3659973 .29078675C.3659973 .05493164 .26098634 .005508423 .20098877 .005508423 .1769867 .005508423 .12399292 .008544922 .09899902 .043945314H.10499573C.11199951 .041915895 .147995 .047943117 .147995 .08493042 .147995 .106933597 .1329956 .12593079 .10699463 .12593079 .08099365 .12593079 .06498718 .108932498 .06498718 .08293152 .06498718 .02067566 .114990238-.021484375 .20199585-.021484375 .32699586-.021484375 .44799806 .11193848 .44799806 .32881166 .44799806 .5980072 .33599855 .66503909 .24798584 .66503909 .13798523 .66503909 .040985109 .5729828 .040985109 .44088746 .040985109 .3087921 .13398743 .21875 .23399353 .21875 .30799867 .21875 .34599305 .2727661 .3659973 .32380677V.29078675M.23799134 .23873902C.1749878 .23873902 .147995 .28977967 .13899231 .3087921 .12298584 .34681703 .12298584 .39485169 .12298584 .43988038 .12298584 .4959259 .12298584 .5439606 .14898682 .58499148 .16699219 .6120148 .19400025 .641037 .24798584 .641037 .30499269 .641037 .33399964 .59098818 .34399415 .5679779 .3639984 .51893618 .3639984 .43388368 .3639984 .41886903 .3639984 .33480836 .32598878 .23873902 .23799134 .23873902Z"/>
<path id="font_3_5" d="M.2979889 .36079408C.34799195 .38781739 .42099 .43385316 .42099 .5179291 .42099 .6049957 .33699037 .66503909 .24499512 .66503909 .1459961 .66503909 .067993167 .59199526 .067993167 .5009155 .067993167 .46688844 .07798767 .43286134 .10598755 .39883424 .116989139 .38581849 .117996219 .38482667 .18798828 .3357849 .09098816 .29074098 .040985109 .22369385 .040985109 .15063477 .040985109 .044540407 .14199829-.021484375 .24398804-.021484375 .35499574-.021484375 .44799806 .060546876 .44799806 .16563416 .44799806 .2677307 .37599183 .3127594 .2979889 .36079408M.1619873 .4508667C.14898682 .45988465 .10899353 .48590089 .10899353 .5349426 .10899353 .59999087 .1769867 .641037 .24398804 .641037 .31599427 .641037 .37998963 .58898928 .37998963 .516922 .37998963 .45587159 .33599855 .4068451 .27799989 .3748169L.1619873 .4508667M.20899964 .32176209 .32998658 .2427063C.35598756 .22569275 .4019928 .19465637 .4019928 .13360596 .4019928 .057556154 .32499696 .005508423 .24499512 .005508423 .1599884 .005508423 .08699036 .06756592 .08699036 .15063477 .08699036 .22869873 .14399719 .29174806 .20899964 .32176209Z"/>
<path id="font_3_1" d="M.44799806 .31976319C.44799806 .40283204 .44299317 .48390199 .40699769 .55996707 .3659973 .64302065 .2939911 .66503909 .24499512 .66503909 .18699646 .66503909 .115997318 .63601687 .07899475 .552948 .050994874 .48989869 .040985109 .42785646 .040985109 .31976319 .040985109 .22268677 .04798889 .14962769 .083999637 .078567508 .12298584 .0025177003 .19198609-.021484375 .24398804-.021484375 .33099366-.021484375 .3809967 .030532837 .4099884 .08857727 .44599916 .16363526 .44799806 .26171876 .44799806 .31976319M.24398804-.0014953613C.21199036-.0014953613 .14698792 .016525269 .12799073 .12561035 .116989139 .18565369 .116989139 .26171876 .116989139 .33177186 .116989139 .41384889 .116989139 .48789979 .1329956 .5469513 .1499939 .6139984 .20098877 .6450348 .24398804 .6450348 .28199769 .6450348 .33999635 .6220093 .35899354 .53593447 .37199403 .4788971 .37199403 .39982606 .37199403 .33177186 .37199403 .26472474 .37199403 .18865967 .36099244 .12760926 .34199525 .01751709 .2789917-.0014953613 .24398804-.0014953613Z"/>
<path id="font_2_8" d="M.4019928 .41426087 .25698854 .44525147C.21699524 .45425416 .16099549 .48825074 .16099549 .5492554 .16099549 .59225466 .18899536 .6542511 .2889862 .6542511 .36898805 .6542511 .46998597 .6202545 .49299623 .48425294 .49699403 .46025086 .49699403 .45825196 .5179901 .45825196 .5419922 .45825196 .5419922 .46325685 .5419922 .48625184V.6692505C.5419922 .68826296 .5419922 .6972656 .5239868 .6972656 .5159912 .6972656 .5149994 .69625857 .5039978 .68626406L.45899964 .6422577C.40098573 .68826296 .33599855 .6972656 .28799439 .6972656 .13598633 .6972656 .06399536 .6012573 .06399536 .4962616 .06399536 .43125917 .09700012 .3852539 .117996219 .36325074 .16699219 .31425477 .20098877 .30725099 .30999757 .2832489 .397995 .2642517 .4149933 .261261 .43699647 .24024964 .45199586 .22525025 .47698976 .19924927 .47698976 .15325928 .47698976 .10525513 .45098878 .036254884 .34700013 .036254884 .2709961 .036254884 .11898804 .056243898 .11099243 .20524597 .10998535 .22325135 .10998535 .22825623 .08799744 .22825623 .06399536 .22825623 .06399536 .22225952 .06399536 .19924927V.01725769C.06399536-.0017547608 .06399536-.0107421879 .08198547-.0107421879 .09098816-.0107421879 .09298706-.008743286 .100997928-.0017547608L.14698792 .04425049C.21299744-.0047454836 .30599977-.0107421879 .34700013-.0107421879 .5119934-.0107421879 .57398989 .102249149 .57398989 .20324707 .57398989 .31425477 .49299623 .39526368 .4019928 .41426087Z"/>
<path id="font_2_14" d="M.116989139 .44433595H.041992189V.3973236H.116989139V.04699707H.04798889V0C.08299255 .0009918213 .12799073 .0029907227 .17399597 .0029907227 .21199036 .0029907227 .27598573 .0029907227 .31199647 0V.04699707H.22499085V.3973236H.33999635V.44433595H.21899414V.54525759C.21899414 .65519717 .29499818 .6641846 .31999208 .6641846 .32499696 .6641846 .32998658 .6641846 .33699037 .66218569 .32199098 .65119937 .31399537 .63220217 .31399537 .6132202 .31399537 .57025149 .34899903 .5512543 .375 .5512543 .40499879 .5512543 .43699647 .57225039 .43699647 .6132202 .43699647 .65519717 .40098573 .7001953 .32299806 .7001953 .22499085 .7001953 .116989139 .65818789 .116989139 .54525759V.44433595Z"/>
<path id="font_2_6" d="M.6429901 .27381898H.59599307C.58799746 .2048645 .57099917 .04699707 .3919983 .04699707H.2889862V.63853457H.42399598V.6855469C.37998963 .6825409 .2709961 .6825409 .22200012 .6825409 .17799378 .6825409 .07699585 .6825409 .038986207 .6855469V.63853457H.14698792V.04699707H.038986207V0H.6119995L.6429901 .27381898Z"/>
<path id="font_2_7" d="M.54599 .13192749 .30599977 .6605377C.29499818 .6855469 .28399659 .6855469 .2619934 .6855469H.039993287V.63853457H.147995V.07597351C.147995 .053985597 .14698792 .052993776 .11898804 .049987794 .09498596 .04699707 .09298706 .04699707 .06498718 .04699707H.039993287V0C.07798767 .0029907227 .1349945 .0029907227 .17399597 .0029907227 .21598816 .0029907227 .2679901 .0029907227 .30899049 0V.04699707H.28399659C.2659912 .04699707 .24899292 .04798889 .23098755 .049987794 .20199585 .052993776 .20098877 .053985597 .20098877 .07597351V.6255493H.20199585L.47399903 .024993897C.48298646 .004989624 .49499513 0 .5059967 0 .526001 0 .5339966 .01499939 .5379944 .023986817L.81700137 .63853457H.81799319V.04699707H.70999148V0C.74598696 .0029907227 .83898928 .0029907227 .8799896 .0029907227 .92099 .0029907227 1.0149994 .0029907227 1.0509949 0V.04699707H.94299319V.63853457H1.0509949V.6855469H.8299866C.80799868 .6855469 .7969971 .6855469 .7859955 .6605377L.54599 .13192749Z"/>
<path id="font_3_2" d="M.43998719 .16790772H.41799928C.4149933 .15092469 .40699769 .09597778 .39698792 .07998657 .3899994 .070999149 .33299256 .070999149 .30299378 .070999149H.117996219C.14498902 .09397888 .20599365 .15792847 .23199463 .18190003 .38398744 .3217926 .43998719 .37374879 .43998719 .47270204 .43998719 .5878906 .34899903 .66503909 .23298645 .66503909 .116989139 .66503909 .04899597 .5658264 .04899597 .4797058 .04899597 .42871095 .09298706 .42871095 .09599304 .42871095 .116989139 .42871095 .14299011 .44371034 .14299011 .475708 .14299011 .5037079 .12399292 .5227051 .09599304 .5227051 .08699036 .5227051 .084991458 .5227051 .08198547 .521698 .100997928 .5899048 .15499878 .6360321 .21998596 .6360321 .30499269 .6360321 .35699464 .56481936 .35699464 .47270204 .35699464 .3877411 .30799867 .313797 .25099183 .24984741L.04899597 .023986817V0H.4139862L.43998719 .16790772Z"/>
<path id="font_3_3" d="M.36099244 .6508026C.36099244 .6697998 .36099244 .6748047 .34700013 .6748047 .33898927 .6748047 .33599855 .6748047 .32798768 .662796L.026992798 .19598389V.16699219H.2899933V.07598877C.2899933 .038986207 .28799439 .0289917 .21499634 .0289917H.19499207V0C.21798706 .0019989014 .29699708 .0019989014 .32499696 .0019989014 .35299684 .0019989014 .43299867 .0019989014 .45599366 0V.0289917H.43598939C.3639984 .0289917 .36099244 .038986207 .36099244 .07598877V.16699219H.46199037V.19598389H.36099244V.6508026M.29499818 .5728302V.19598389H.051986696L.29499818 .5728302Z"/>
</defs>
<path transform="matrix(1,0,0,-1,46.059,108.47099)" d="M-16.1571 34.86635H-21.82639V-78.51913H-16.1571ZM-16.1571 34.86635H-21.82639L21.82639 78.51913H27.49565ZM21.82639 78.51913" fill="#bf0000" fill-opacity=".4"/>
<path transform="matrix(1,0,0,-1,46.059,108.47099)" stroke-width=".3985" stroke-linecap="butt" stroke-miterlimit="10" stroke-linejoin="miter" fill="none" stroke="#000000" d="M-16.1571 34.86635H-21.82639V-78.51913H-16.1571ZM-16.1571 34.86635H-21.82639L21.82639 78.51913H27.49565ZM21.82639 78.51913"/>
<path transform="matrix(1,0,0,-1,46.059,108.47099)" stroke-width=".3985" stroke-linecap="butt" stroke-dasharray="2.98883,1.99255" stroke-miterlimit="10" stroke-linejoin="miter" fill="none" stroke="#000000" stroke-opacity=".7" d="M27.49565-34.86635H21.82639"/>
<path transform="matrix(1,0,0,-1,46.059,108.47099)" stroke-width=".3985" stroke-linecap="butt" stroke-dasharray="2.98883,1.99255" stroke-miterlimit="10" stroke-linejoin="miter" fill="none" stroke="#000000" stroke-opacity=".7" d="M-21.82639-78.51913 21.82639-34.86635"/>
<path transform="matrix(1,0,0,-1,46.059,108.47099)" stroke-width=".3985" stroke-linecap="butt" stroke-dasharray="2.98883,1.99255" stroke-miterlimit="10" stroke-linejoin="miter" fill="none" stroke="#000000" stroke-opacity=".7" d="M21.82639 78.51913V-34.86635"/>
<path transform="matrix(1,0,0,-1,46.059,108.47099)" stroke-width=".3985" stroke-linecap="butt" stroke-miterlimit="10" stroke-linejoin="miter" fill="none" stroke="#000000" d="M-21.82639-78.51913H-16.1571"/>
<use data-text="1" xlink:href="#font_1_2" transform="matrix(9.9626,0,0,-9.9626,24.576998,196.93)"/>
<path transform="matrix(1,0,0,-1,46.059,108.47099)" d="M-16.1571 34.86635 27.49565 78.51913V-34.86635L-16.1571-78.51913Z" fill="#bf0000" fill-opacity=".4"/>
<path transform="matrix(1,0,0,-1,46.059,108.47099)" stroke-width=".3985" stroke-linecap="butt" stroke-miterlimit="10" stroke-linejoin="miter" fill="none" stroke="#000000" d="M-16.1571 34.86635 27.49565 78.51913V-34.86635L-16.1571-78.51913Z"/>
<path transform="matrix(1,0,0,-1,46.059,108.47099)" stroke-width=".3985" stroke-linecap="butt" stroke-miterlimit="10" stroke-linejoin="miter" fill="none" stroke="#000000" d="M-16.1571-78.51913 27.49565-34.86635"/>
<path transform="matrix(1,0,0,-1,46.059,108.47099)" stroke-width=".3985" stroke-linecap="butt" stroke-miterlimit="10" stroke-linejoin="miter" fill="none" stroke="#000000" d="M-21.82639-78.51913V34.86635"/>
<path transform="matrix(1,0,0,-1,46.059,108.47099)" stroke-width=".3985" stroke-linecap="butt" stroke-miterlimit="10" stroke-linejoin="miter" fill="none" stroke="#000000" d="M-18.99197-103.42606V-103.42606"/>
<use data-text="I" xlink:href="#font_2_5" transform="matrix(9.9626,0,0,-9.9626,19.594998,214.345)"/>
<use data-text="n" xlink:href="#font_2_18" transform="matrix(9.9626,0,0,-9.9626,23.938693,214.345)"/>
<use data-text="p" xlink:href="#font_2_20" transform="matrix(9.9626,0,0,-9.9626,30.304795,214.345)"/>
<use data-text="u" xlink:href="#font_2_24" transform="matrix(9.9626,0,0,-9.9626,36.6709,214.345)"/>
<use data-text="t" xlink:href="#font_2_23" transform="matrix(9.9626,0,0,-9.9626,43.036996,214.345)"/>
<use data-text="7" xlink:href="#font_3_4" transform="matrix(11.9552,0,0,-11.9552,51.906,178.37999)"/>
<use data-text="x" xlink:href="#font_3_7" transform="matrix(11.9552,0,0,-11.9552,57.764047,178.37999)"/>
<use data-text="7" xlink:href="#font_3_4" transform="matrix(11.9552,0,0,-11.9552,63.944887,178.37999)"/>
<path transform="matrix(1,0,0,-1,46.059,108.47099)" d="M77.387 34.86635H54.70988V-78.51913H77.387ZM77.387 34.86635H54.70988L98.36267 78.51913H121.03976ZM98.36267 78.51913" fill="#33ff33" fill-opacity=".4"/>
<path transform="matrix(1,0,0,-1,46.059,108.47099)" stroke-width=".3985" stroke-linecap="butt" stroke-miterlimit="10" stroke-linejoin="miter" fill="none" stroke="#000000" d="M77.387 34.86635H54.70988V-78.51913H77.387ZM77.387 34.86635H54.70988L98.36267 78.51913H121.03976ZM98.36267 78.51913"/>
<path transform="matrix(1,0,0,-1,46.059,108.47099)" stroke-width=".3985" stroke-linecap="butt" stroke-dasharray="2.98883,1.99255" stroke-miterlimit="10" stroke-linejoin="miter" fill="none" stroke="#000000" stroke-opacity=".7" d="M121.03976-34.86635H98.36267"/>
<path transform="matrix(1,0,0,-1,46.059,108.47099)" stroke-width=".3985" stroke-linecap="butt" stroke-dasharray="2.98883,1.99255" stroke-miterlimit="10" stroke-linejoin="miter" fill="none" stroke="#000000" stroke-opacity=".7" d="M54.70988-78.51913 98.36267-34.86635"/>
<path transform="matrix(1,0,0,-1,46.059,108.47099)" stroke-width=".3985" stroke-linecap="butt" stroke-dasharray="2.98883,1.99255" stroke-miterlimit="10" stroke-linejoin="miter" fill="none" stroke="#000000" stroke-opacity=".7" d="M98.36267 78.51913V-34.86635"/>
<path transform="matrix(1,0,0,-1,46.059,108.47099)" stroke-width=".3985" stroke-linecap="butt" stroke-miterlimit="10" stroke-linejoin="miter" fill="none" stroke="#000000" d="M54.70988-78.51913H77.387"/>
<use data-text="2" xlink:href="#font_1_3" transform="matrix(9.9626,0,0,-9.9626,107.125,196.93)"/>
<use data-text="0" xlink:href="#font_1_1" transform="matrix(9.9626,0,0,-9.9626,112.1063,196.93)"/>
<path transform="matrix(1,0,0,-1,46.059,108.47099)" d="M77.387 34.86635 121.03976 78.51913V-34.86635L77.387-78.51913Z" fill="#33ff33" fill-opacity=".4"/>
<path transform="matrix(1,0,0,-1,46.059,108.47099)" stroke-width=".3985" stroke-linecap="butt" stroke-miterlimit="10" stroke-linejoin="miter" fill="none" stroke="#000000" d="M77.387 34.86635 121.03976 78.51913V-34.86635L77.387-78.51913Z"/>
<path transform="matrix(1,0,0,-1,46.059,108.47099)" stroke-width=".3985" stroke-linecap="butt" stroke-miterlimit="10" stroke-linejoin="miter" fill="none" stroke="#000000" d="M77.387-78.51913 121.03976-34.86635"/>
<path transform="matrix(1,0,0,-1,46.059,108.47099)" stroke-width=".3985" stroke-linecap="butt" stroke-miterlimit="10" stroke-linejoin="miter" fill="none" stroke="#000000" d="M54.70988-78.51913V34.86635"/>
<path transform="matrix(1,0,0,-1,46.059,108.47099)" stroke-width=".3985" stroke-linecap="butt" stroke-miterlimit="10" stroke-linejoin="miter" fill="none" stroke="#000000" d="M66.04843-103.42606V-103.42606"/>
<use data-text="T" xlink:href="#font_2_9" transform="matrix(9.9626,0,0,-9.9626,82.218997,209.37799)"/>
<use data-text="i" xlink:href="#font_2_15" transform="matrix(9.9626,0,0,-9.9626,90.18907,209.37799)"/>
<use data-text="m" xlink:href="#font_2_17" transform="matrix(9.9626,0,0,-9.9626,93.36714,209.37799)"/>
<use data-text="e" xlink:href="#font_2_13" transform="matrix(9.9626,0,0,-9.9626,102.911319,209.37799)"/>
<use data-text="D" xlink:href="#font_2_3" transform="matrix(9.9626,0,0,-9.9626,108.161609,209.37799)"/>
<use data-text="i" xlink:href="#font_2_15" transform="matrix(9.9626,0,0,-9.9626,116.948619,209.37799)"/>
<use data-text="s" xlink:href="#font_2_22" transform="matrix(9.9626,0,0,-9.9626,120.126689,209.37799)"/>
<use data-text="t" xlink:href="#font_2_23" transform="matrix(9.9626,0,0,-9.9626,124.649707,209.37799)"/>
<use data-text="r" xlink:href="#font_2_21" transform="matrix(9.9626,0,0,-9.9626,129.103,209.37799)"/>
<use data-text="i" xlink:href="#font_2_15" transform="matrix(9.9626,0,0,-9.9626,133.82526,209.37799)"/>
<use data-text="b" xlink:href="#font_2_11" transform="matrix(9.9626,0,0,-9.9626,137.00333,209.37799)"/>
<use data-text="u" xlink:href="#font_2_24" transform="matrix(9.9626,0,0,-9.9626,143.36945,209.37799)"/>
<use data-text="t" xlink:href="#font_2_23" transform="matrix(9.9626,0,0,-9.9626,149.73554,209.37799)"/>
<use data-text="e" xlink:href="#font_2_13" transform="matrix(9.9626,0,0,-9.9626,154.18881,209.37799)"/>
<use data-text="d" xlink:href="#font_2_12" transform="matrix(9.9626,0,0,-9.9626,159.43912,209.37799)"/>
<use data-text="C" xlink:href="#font_2_2" transform="matrix(9.9626,0,0,-9.9626,91.800998,221.333)"/>
<use data-text="o" xlink:href="#font_2_19" transform="matrix(9.9626,0,0,-9.9626,100.07992,221.333)"/>
<use data-text="n" xlink:href="#font_2_18" transform="matrix(9.9626,0,0,-9.9626,105.80841,221.333)"/>
<use data-text="v" xlink:href="#font_2_25" transform="matrix(9.9626,0,0,-9.9626,111.85571,221.333)"/>
<use data-text="2" xlink:href="#font_2_1" transform="matrix(9.9626,0,0,-9.9626,117.90301,221.333)"/>
<use data-text="D" xlink:href="#font_2_3" transform="matrix(9.9626,0,0,-9.9626,123.6315,221.333)"/>
<use data-text="7" xlink:href="#font_3_4" transform="matrix(11.9552,0,0,-11.9552,142.923,178.37999)"/>
<use data-text="x" xlink:href="#font_3_7" transform="matrix(11.9552,0,0,-11.9552,148.78105,178.37999)"/>
<use data-text="7" xlink:href="#font_3_4" transform="matrix(11.9552,0,0,-11.9552,154.96189,178.37999)"/>
<path transform="matrix(1,0,0,-1,46.059,108.47099)" stroke-width="1.59404" stroke-linecap="butt" stroke-miterlimit="10" stroke-linejoin="miter" fill="none" stroke="#155555" stroke-opacity=".7" d="M5.66927 0H76.53629"/>
<path transform="matrix(1,0,0,-1,93.190998,108.47099)" stroke-width="2.26773" stroke-linecap="butt" stroke-miterlimit="10" stroke-linejoin="miter" fill="none" stroke="#155555" stroke-opacity=".7" d="M-8.50412 0H-7.98927"/>
<g>
<path transform="matrix(1,0,0,-1,79.997348,108.47099)" d="M10.02324 0 3.59471 2.4473 5.76099 0 3.59471-2.4473Z" fill="#155555" fill-opacity=".7"/>
<path transform="matrix(1,0,0,-1,79.997348,108.47099)" stroke-width="2.22643" stroke-linecap="butt" stroke-miterlimit="10" stroke-linejoin="miter" fill="none" stroke="#155555" stroke-opacity=".7" d="M10.02324 0 3.59471 2.4473 5.76099 0 3.59471-2.4473Z"/>
</g>
<path transform="matrix(1,0,0,-1,46.059,108.47099)" d="M177.49285 98.12086H168.98917V-100.30331H177.49285ZM177.49285 98.12086H168.98917L171.17163 100.30331H179.67531ZM171.17163 100.30331" fill="#bf8040" fill-opacity=".4"/>
<path transform="matrix(1,0,0,-1,46.059,108.47099)" stroke-width=".3985" stroke-linecap="butt" stroke-miterlimit="10" stroke-linejoin="miter" fill="none" stroke="#000000" d="M177.49285 98.12086H168.98917V-100.30331H177.49285ZM177.49285 98.12086H168.98917L171.17163 100.30331H179.67531ZM171.17163 100.30331"/>
<path transform="matrix(1,0,0,-1,46.059,108.47099)" stroke-width=".3985" stroke-linecap="butt" stroke-dasharray="2.98883,1.99255" stroke-miterlimit="10" stroke-linejoin="miter" fill="none" stroke="#000000" stroke-opacity=".7" d="M179.67531-98.12086H171.17163"/>
<path transform="matrix(1,0,0,-1,46.059,108.47099)" stroke-width=".3985" stroke-linecap="butt" stroke-dasharray="2.98883,1.99255" stroke-miterlimit="10" stroke-linejoin="miter" fill="none" stroke="#000000" stroke-opacity=".7" d="M168.98917-100.30331 171.17163-98.12086"/>
<path transform="matrix(1,0,0,-1,46.059,108.47099)" stroke-width=".3985" stroke-linecap="butt" stroke-dasharray="2.98883,1.99255" stroke-miterlimit="10" stroke-linejoin="miter" fill="none" stroke="#000000" stroke-opacity=".7" d="M171.17163 100.30331V-98.12086"/>
<path transform="matrix(1,0,0,-1,46.059,108.47099)" stroke-width=".3985" stroke-linecap="butt" stroke-miterlimit="10" stroke-linejoin="miter" fill="none" stroke="#000000" d="M168.98917-100.30331H177.49285"/>
<use data-text="1" xlink:href="#font_1_2" transform="matrix(9.9626,0,0,-9.9626,216.807,218.71399)"/>
<path transform="matrix(1,0,0,-1,46.059,108.47099)" d="M177.49285 98.12086 179.67531 100.30331V-98.12086L177.49285-100.30331Z" fill="#bf8040" fill-opacity=".4"/>
<path transform="matrix(1,0,0,-1,46.059,108.47099)" stroke-width=".3985" stroke-linecap="butt" stroke-miterlimit="10" stroke-linejoin="miter" fill="none" stroke="#000000" d="M177.49285 98.12086 179.67531 100.30331V-98.12086L177.49285-100.30331Z"/>
<path transform="matrix(1,0,0,-1,46.059,108.47099)" stroke-width=".3985" stroke-linecap="butt" stroke-miterlimit="10" stroke-linejoin="miter" fill="none" stroke="#000000" d="M177.49285-100.30331 179.67531-98.12086"/>
<path transform="matrix(1,0,0,-1,46.059,108.47099)" stroke-width=".3985" stroke-linecap="butt" stroke-miterlimit="10" stroke-linejoin="miter" fill="none" stroke="#000000" d="M168.98917-100.30331V98.12086"/>
<path transform="matrix(1,0,0,-1,46.059,108.47099)" stroke-width=".3985" stroke-linecap="butt" stroke-miterlimit="10" stroke-linejoin="miter" fill="none" stroke="#000000" d="M173.24102-125.21024V-125.21024"/>
<use data-text="F" xlink:href="#font_2_4" transform="matrix(9.9626,0,0,-9.9626,208.09,237.13899)"/>
<use data-text="l" xlink:href="#font_2_16" transform="matrix(9.9626,0,0,-9.9626,215.30292,237.13899)"/>
<use data-text="a" xlink:href="#font_2_10" transform="matrix(9.9626,0,0,-9.9626,218.48099,237.13899)"/>
<use data-text="t" xlink:href="#font_2_23" transform="matrix(9.9626,0,0,-9.9626,224.05008,237.13899)"/>
<use data-text="t" xlink:href="#font_2_23" transform="matrix(9.9626,0,0,-9.9626,228.50336,237.13899)"/>
<use data-text="e" xlink:href="#font_2_13" transform="matrix(9.9626,0,0,-9.9626,232.95664,237.13899)"/>
<use data-text="n" xlink:href="#font_2_18" transform="matrix(9.9626,0,0,-9.9626,238.20693,237.13899)"/>
<use data-text="9" xlink:href="#font_3_6" transform="matrix(11.9552,0,0,-11.9552,229.61899,102.36099)"/>
<use data-text="8" xlink:href="#font_3_5" transform="matrix(11.9552,0,0,-11.9552,235.47704,102.36099)"/>
<use data-text="0" xlink:href="#font_3_1" transform="matrix(11.9552,0,0,-11.9552,241.33509,102.36099)"/>
<path transform="matrix(1,0,0,-1,46.059,108.47099)" stroke-width="1.59404" stroke-linecap="butt" stroke-miterlimit="10" stroke-linejoin="miter" fill="none" stroke="#155555" stroke-opacity=".7" d="M99.21338 0H170.0804"/>
<path transform="matrix(1,0,0,-1,186.73401,108.47099)" stroke-width="2.26773" stroke-linecap="butt" stroke-miterlimit="10" stroke-linejoin="miter" fill="none" stroke="#155555" stroke-opacity=".7" d="M-8.50412 0H-7.98927"/>
<g>
<path transform="matrix(1,0,0,-1,173.54036,108.47099)" d="M10.02324 0 3.59471 2.4473 5.76099 0 3.59471-2.4473Z" fill="#155555" fill-opacity=".7"/>
<path transform="matrix(1,0,0,-1,173.54036,108.47099)" stroke-width="2.22643" stroke-linecap="butt" stroke-miterlimit="10" stroke-linejoin="miter" fill="none" stroke="#155555" stroke-opacity=".7" d="M10.02324 0 3.59471 2.4473 5.76099 0 3.59471-2.4473Z"/>
</g>
<path transform="matrix(1,0,0,-1,46.059,108.47099)" d="M256.86357 27.25513H248.35987V-29.43759H256.86357ZM256.86357 27.25513H248.35987L250.54233 29.43759H259.046ZM250.54233 29.43759" fill="#b6b6ff" fill-opacity=".4"/>
<path transform="matrix(1,0,0,-1,46.059,108.47099)" stroke-width=".3985" stroke-linecap="butt" stroke-miterlimit="10" stroke-linejoin="miter" fill="none" stroke="#000000" d="M256.86357 27.25513H248.35987V-29.43759H256.86357ZM256.86357 27.25513H248.35987L250.54233 29.43759H259.046ZM250.54233 29.43759"/>
<path transform="matrix(1,0,0,-1,46.059,108.47099)" stroke-width=".3985" stroke-linecap="butt" stroke-dasharray="2.98883,1.99255" stroke-miterlimit="10" stroke-linejoin="miter" fill="none" stroke="#000000" stroke-opacity=".7" d="M259.046-27.25513H250.54233"/>
<path transform="matrix(1,0,0,-1,46.059,108.47099)" stroke-width=".3985" stroke-linecap="butt" stroke-dasharray="2.98883,1.99255" stroke-miterlimit="10" stroke-linejoin="miter" fill="none" stroke="#000000" stroke-opacity=".7" d="M248.35987-29.43759 250.54233-27.25513"/>
<path transform="matrix(1,0,0,-1,46.059,108.47099)" stroke-width=".3985" stroke-linecap="butt" stroke-dasharray="2.98883,1.99255" stroke-miterlimit="10" stroke-linejoin="miter" fill="none" stroke="#000000" stroke-opacity=".7" d="M250.54233 29.43759V-27.25513"/>
<path transform="matrix(1,0,0,-1,46.059,108.47099)" stroke-width=".3985" stroke-linecap="butt" stroke-miterlimit="10" stroke-linejoin="miter" fill="none" stroke="#000000" d="M248.35987-29.43759H256.86357"/>
<use data-text="1" xlink:href="#font_1_2" transform="matrix(9.9626,0,0,-9.9626,296.177,147.849)"/>
<path transform="matrix(1,0,0,-1,46.059,108.47099)" d="M256.86357 27.25513 259.046 29.43759V-27.25513L256.86357-29.43759Z" fill="#b6b6ff" fill-opacity=".4"/>
<path transform="matrix(1,0,0,-1,46.059,108.47099)" stroke-width=".3985" stroke-linecap="butt" stroke-miterlimit="10" stroke-linejoin="miter" fill="none" stroke="#000000" d="M256.86357 27.25513 259.046 29.43759V-27.25513L256.86357-29.43759Z"/>
<path transform="matrix(1,0,0,-1,46.059,108.47099)" stroke-width=".3985" stroke-linecap="butt" stroke-miterlimit="10" stroke-linejoin="miter" fill="none" stroke="#000000" d="M256.86357-29.43759 259.046-27.25513"/>
<path transform="matrix(1,0,0,-1,46.059,108.47099)" stroke-width=".3985" stroke-linecap="butt" stroke-miterlimit="10" stroke-linejoin="miter" fill="none" stroke="#000000" d="M248.35987-29.43759V27.25513"/>
<path transform="matrix(1,0,0,-1,46.059,108.47099)" stroke-width=".3985" stroke-linecap="butt" stroke-miterlimit="10" stroke-linejoin="miter" fill="none" stroke="#000000" d="M252.61171-54.34451V-54.34451"/>
<use data-text="S" xlink:href="#font_2_8" transform="matrix(9.9626,0,0,-9.9626,287.46,160.297)"/>
<use data-text="t" xlink:href="#font_2_23" transform="matrix(9.9626,0,0,-9.9626,293.82609,160.297)"/>
<use data-text="a" xlink:href="#font_2_10" transform="matrix(9.9626,0,0,-9.9626,298.27937,160.297)"/>
<use data-text="t" xlink:href="#font_2_23" transform="matrix(9.9626,0,0,-9.9626,303.84846,160.297)"/>
<use data-text="e" xlink:href="#font_2_13" transform="matrix(9.9626,0,0,-9.9626,308.30174,160.297)"/>
<use data-text="f" xlink:href="#font_2_14" transform="matrix(9.9626,0,0,-9.9626,313.55204,160.297)"/>
<use data-text="u" xlink:href="#font_2_24" transform="matrix(9.9626,0,0,-9.9626,317.04893,160.297)"/>
<use data-text="l" xlink:href="#font_2_16" transform="matrix(9.9626,0,0,-9.9626,323.415,160.297)"/>
<use data-text="L" xlink:href="#font_2_6" transform="matrix(9.9626,0,0,-9.9626,287.46,172.25199)"/>
<use data-text="S" xlink:href="#font_2_8" transform="matrix(9.9626,0,0,-9.9626,294.35414,172.25199)"/>
<use data-text="T" xlink:href="#font_2_9" transform="matrix(9.9626,0,0,-9.9626,300.7202,172.25199)"/>
<use data-text="M" xlink:href="#font_2_7" transform="matrix(9.9626,0,0,-9.9626,308.6903,172.25199)"/>
<use data-text="2" xlink:href="#font_3_2" transform="matrix(11.9552,0,0,-11.9552,308.98899,102.36099)"/>
<use data-text="4" xlink:href="#font_3_3" transform="matrix(11.9552,0,0,-11.9552,314.84706,102.36099)"/>
<path transform="matrix(1,0,0,-1,46.059,108.47099)" stroke-width="1.59404" stroke-linecap="butt" stroke-miterlimit="10" stroke-linejoin="miter" fill="none" stroke="#155555" stroke-opacity=".7" d="M178.58408 0H249.4511"/>
<path transform="matrix(1,0,0,-1,266.104,108.47099)" stroke-width="2.26773" stroke-linecap="butt" stroke-miterlimit="10" stroke-linejoin="miter" fill="none" stroke="#155555" stroke-opacity=".7" d="M-8.50412 0H-7.98927"/>
<g>
<path transform="matrix(1,0,0,-1,252.91036,108.47099)" d="M10.02324 0 3.59471 2.4473 5.76099 0 3.59471-2.4473Z" fill="#155555" fill-opacity=".7"/>
<path transform="matrix(1,0,0,-1,252.91036,108.47099)" stroke-width="2.22643" stroke-linecap="butt" stroke-miterlimit="10" stroke-linejoin="miter" fill="none" stroke="#155555" stroke-opacity=".7" d="M10.02324 0 3.59471 2.4473 5.76099 0 3.59471-2.4473Z"/>
</g>
<path transform="matrix(1,0,0,-1,46.059,108.47099)" d="M336.23426 49.93224H327.73057V-52.11469H336.23426ZM336.23426 49.93224H327.73057L329.91304 52.11469H338.4167ZM329.91304 52.11469" fill="#ffffe8" fill-opacity=".4"/>
<path transform="matrix(1,0,0,-1,46.059,108.47099)" stroke-width=".3985" stroke-linecap="butt" stroke-miterlimit="10" stroke-linejoin="miter" fill="none" stroke="#000000" d="M336.23426 49.93224H327.73057V-52.11469H336.23426ZM336.23426 49.93224H327.73057L329.91304 52.11469H338.4167ZM329.91304 52.11469"/>
<path transform="matrix(1,0,0,-1,46.059,108.47099)" stroke-width=".3985" stroke-linecap="butt" stroke-dasharray="2.98883,1.99255" stroke-miterlimit="10" stroke-linejoin="miter" fill="none" stroke="#000000" stroke-opacity=".7" d="M338.4167-49.93224H329.91304"/>
<path transform="matrix(1,0,0,-1,46.059,108.47099)" stroke-width=".3985" stroke-linecap="butt" stroke-dasharray="2.98883,1.99255" stroke-miterlimit="10" stroke-linejoin="miter" fill="none" stroke="#000000" stroke-opacity=".7" d="M327.73057-52.11469 329.91304-49.93224"/>
<path transform="matrix(1,0,0,-1,46.059,108.47099)" stroke-width=".3985" stroke-linecap="butt" stroke-dasharray="2.98883,1.99255" stroke-miterlimit="10" stroke-linejoin="miter" fill="none" stroke="#000000" stroke-opacity=".7" d="M329.91304 52.11469V-49.93224"/>
<path transform="matrix(1,0,0,-1,46.059,108.47099)" stroke-width=".3985" stroke-linecap="butt" stroke-miterlimit="10" stroke-linejoin="miter" fill="none" stroke="#000000" d="M327.73057-52.11469H336.23426"/>
<use data-text="1" xlink:href="#font_1_2" transform="matrix(9.9626,0,0,-9.9626,375.546,170.526)"/>
<path transform="matrix(1,0,0,-1,46.059,108.47099)" d="M336.23426 49.93224 338.4167 52.11469V-49.93224L336.23426-52.11469Z" fill="#ffffe8" fill-opacity=".4"/>
<path transform="matrix(1,0,0,-1,46.059,108.47099)" stroke-width=".3985" stroke-linecap="butt" stroke-miterlimit="10" stroke-linejoin="miter" fill="none" stroke="#000000" d="M336.23426 49.93224 338.4167 52.11469V-49.93224L336.23426-52.11469Z"/>
<path transform="matrix(1,0,0,-1,46.059,108.47099)" stroke-width=".3985" stroke-linecap="butt" stroke-miterlimit="10" stroke-linejoin="miter" fill="none" stroke="#000000" d="M336.23426-52.11469 338.4167-49.93224"/>
<path transform="matrix(1,0,0,-1,46.059,108.47099)" stroke-width=".3985" stroke-linecap="butt" stroke-miterlimit="10" stroke-linejoin="miter" fill="none" stroke="#000000" d="M327.73057-52.11469V49.93224"/>
<path transform="matrix(1,0,0,-1,46.059,108.47099)" stroke-width=".3985" stroke-linecap="butt" stroke-miterlimit="10" stroke-linejoin="miter" fill="none" stroke="#000000" d="M331.9824-77.0216V-77.0216"/>
<use data-text="D" xlink:href="#font_2_3" transform="matrix(9.9626,0,0,-9.9626,366.82899,188.91)"/>
<use data-text="e" xlink:href="#font_2_13" transform="matrix(9.9626,0,0,-9.9626,375.616,188.91)"/>
<use data-text="n" xlink:href="#font_2_18" transform="matrix(9.9626,0,0,-9.9626,380.8663,188.91)"/>
<use data-text="s" xlink:href="#font_2_22" transform="matrix(9.9626,0,0,-9.9626,387.2324,188.91)"/>
<use data-text="e" xlink:href="#font_2_13" transform="matrix(9.9626,0,0,-9.9626,391.7554,188.91)"/>
<use data-text="4" xlink:href="#font_3_3" transform="matrix(11.9552,0,0,-11.9552,388.35899,102.36099)"/>
<use data-text="9" xlink:href="#font_3_6" transform="matrix(11.9552,0,0,-11.9552,394.21705,102.36099)"/>
<path transform="matrix(1,0,0,-1,46.059,108.47099)" stroke-width="1.59404" stroke-linecap="butt" stroke-miterlimit="10" stroke-linejoin="miter" fill="none" stroke="#155555" stroke-opacity=".7" d="M257.95478 0H328.8218"/>
<path transform="matrix(1,0,0,-1,345.473,108.47099)" stroke-width="2.26773" stroke-linecap="butt" stroke-miterlimit="10" stroke-linejoin="miter" fill="none" stroke="#155555" stroke-opacity=".7" d="M-8.50412 0H-7.98927"/>
<g>
<path transform="matrix(1,0,0,-1,332.27934,108.47099)" d="M10.02324 0 3.59471 2.4473 5.76099 0 3.59471-2.4473Z" fill="#155555" fill-opacity=".7"/>
<path transform="matrix(1,0,0,-1,332.27934,108.47099)" stroke-width="2.22643" stroke-linecap="butt" stroke-miterlimit="10" stroke-linejoin="miter" fill="none" stroke="#155555" stroke-opacity=".7" d="M10.02324 0 3.59471 2.4473 5.76099 0 3.59471-2.4473Z"/>
</g>
</svg>
