<?xml version="1.0" encoding="utf-8" standalone="no"?>
<!DOCTYPE svg PUBLIC "-//W3C//DTD SVG 1.1//EN"
  "http://www.w3.org/Graphics/SVG/1.1/DTD/svg11.dtd">
<svg xmlns:xlink="http://www.w3.org/1999/xlink" width="710.05068pt" height="423.744039pt" viewBox="0 0 710.05068 423.744039" xmlns="http://www.w3.org/2000/svg" version="1.1">
 <metadata>
  <rdf:RDF xmlns:dc="http://purl.org/dc/elements/1.1/" xmlns:cc="http://creativecommons.org/ns#" xmlns:rdf="http://www.w3.org/1999/02/22-rdf-syntax-ns#">
   <cc:Work>
    <dc:type rdf:resource="http://purl.org/dc/dcmitype/StillImage"/>
    <dc:date>2026-07-06T11:59:17.140389</dc:date>
    <dc:format>image/svg+xml</dc:format>
    <dc:creator>
     <cc:Agent>
      <dc:title>Matplotlib v3.5.3, https://matplotlib.org/</dc:title>
     </cc:Agent>
    </dc:creator>
   </cc:Work>
  </rdf:RDF>
 </metadata>
 <defs>
  <style type="text/css">*{stroke-linejoin: round; stroke-linecap: butt}</style>
 </defs>
 <g id="figure_1">
  <g id="patch_1">
   <path d="M 0 423.744039 
L 710.05068 423.744039 
L 710.05068 0 
L 0 0 
z
" style="fill: #ffffff"/>
  </g>
  <g id="axes_1">
   <g id="patch_2">
    <path d="M 53.328125 325.303287 
L 702.85068 325.303287 
L 702.85068 33.397812 
L 53.328125 33.397812 
z
" style="fill: #ffffff"/>
   </g>
   <g id="matplotlib.axis_1">
    <g id="xtick_1">
     <g id="line2d_1">
      <path d="M 82.851878 325.303287 
L 82.851878 33.397812 
" clip-path="url(#p94fb8091e2)" style="fill: none; stroke-dasharray: 2.96,1.28; stroke-dashoffset: 0; stroke: #b0b0b0; stroke-opacity: 0.5; stroke-width: 0.8"/>
     </g>
     <g id="line2d_2">
      <defs>
       <path id="m21ea5c39a8" d="M 0 0 
L 0 3.5 
" style="stroke: #000000; stroke-width: 0.8"/>
      </defs>
      <g>
       <use xlink:href="#m21ea5c39a8" x="82.851878" y="325.303287" style="stroke: #000000; stroke-width: 0.8"/>
      </g>
     </g>
     <g id="text_1">
      <!-- 2013-11-01 00:00 -->
      <g transform="translate(52.94347 401.395353)rotate(-45)scale(0.1 -0.1)">
       <defs>
        <path id="DejaVuSans-32" d="M 1228 531 
L 3431 531 
L 3431 0 
L 469 0 
L 469 531 
Q 828 903 1448 1529 
Q 2069 2156 2228 2338 
Q 2531 2678 2651 2914 
Q 2772 3150 2772 3378 
Q 2772 3750 2511 3984 
Q 2250 4219 1831 4219 
Q 1534 4219 1204 4116 
Q 875 4013 500 3803 
L 500 4441 
Q 881 4594 1212 4672 
Q 1544 4750 1819 4750 
Q 2544 4750 2975 4387 
Q 3406 4025 3406 3419 
Q 3406 3131 3298 2873 
Q 3191 2616 2906 2266 
Q 2828 2175 2409 1742 
Q 1991 1309 1228 531 
z
" transform="scale(0.015625)"/>
        <path id="DejaVuSans-30" d="M 2034 4250 
Q 1547 4250 1301 3770 
Q 1056 3291 1056 2328 
Q 1056 1369 1301 889 
Q 1547 409 2034 409 
Q 2525 409 2770 889 
Q 3016 1369 3016 2328 
Q 3016 3291 2770 3770 
Q 2525 4250 2034 4250 
z
M 2034 4750 
Q 2819 4750 3233 4129 
Q 3647 3509 3647 2328 
Q 3647 1150 3233 529 
Q 2819 -91 2034 -91 
Q 1250 -91 836 529 
Q 422 1150 422 2328 
Q 422 3509 836 4129 
Q 1250 4750 2034 4750 
z
" transform="scale(0.015625)"/>
        <path id="DejaVuSans-31" d="M 794 531 
L 1825 531 
L 1825 4091 
L 703 3866 
L 703 4441 
L 1819 4666 
L 2450 4666 
L 2450 531 
L 3481 531 
L 3481 0 
L 794 0 
L 794 531 
z
" transform="scale(0.015625)"/>
        <path id="DejaVuSans-33" d="M 2597 2516 
Q 3050 2419 3304 2112 
Q 3559 1806 3559 1356 
Q 3559 666 3084 287 
Q 2609 -91 1734 -91 
Q 1441 -91 1130 -33 
Q 819 25 488 141 
L 488 750 
Q 750 597 1062 519 
Q 1375 441 1716 441 
Q 2309 441 2620 675 
Q 2931 909 2931 1356 
Q 2931 1769 2642 2001 
Q 2353 2234 1838 2234 
L 1294 2234 
L 1294 2753 
L 1863 2753 
Q 2328 2753 2575 2939 
Q 2822 3125 2822 3475 
Q 2822 3834 2567 4026 
Q 2313 4219 1838 4219 
Q 1578 4219 1281 4162 
Q 984 4106 628 3988 
L 628 4550 
Q 988 4650 1302 4700 
Q 1616 4750 1894 4750 
Q 2613 4750 3031 4423 
Q 3450 4097 3450 3541 
Q 3450 3153 3228 2886 
Q 3006 2619 2597 2516 
z
" transform="scale(0.015625)"/>
        <path id="DejaVuSans-2d" d="M 313 2009 
L 1997 2009 
L 1997 1497 
L 313 1497 
L 313 2009 
z
" transform="scale(0.015625)"/>
        <path id="DejaVuSans-20" transform="scale(0.015625)"/>
        <path id="DejaVuSans-3a" d="M 750 794 
L 1409 794 
L 1409 0 
L 750 0 
L 750 794 
z
M 750 3309 
L 1409 3309 
L 1409 2516 
L 750 2516 
L 750 3309 
z
" transform="scale(0.015625)"/>
       </defs>
       <use xlink:href="#DejaVuSans-32"/>
       <use xlink:href="#DejaVuSans-30" x="63.623047"/>
       <use xlink:href="#DejaVuSans-31" x="127.246094"/>
       <use xlink:href="#DejaVuSans-33" x="190.869141"/>
       <use xlink:href="#DejaVuSans-2d" x="254.492188"/>
       <use xlink:href="#DejaVuSans-31" x="290.576172"/>
       <use xlink:href="#DejaVuSans-31" x="354.199219"/>
       <use xlink:href="#DejaVuSans-2d" x="417.822266"/>
       <use xlink:href="#DejaVuSans-30" x="453.90625"/>
       <use xlink:href="#DejaVuSans-31" x="517.529297"/>
       <use xlink:href="#DejaVuSans-20" x="581.152344"/>
       <use xlink:href="#DejaVuSans-30" x="612.939453"/>
       <use xlink:href="#DejaVuSans-30" x="676.5625"/>
       <use xlink:href="#DejaVuSans-3a" x="740.185547"/>
       <use xlink:href="#DejaVuSans-30" x="773.876953"/>
       <use xlink:href="#DejaVuSans-30" x="837.5"/>
      </g>
     </g>
    </g>
    <g id="xtick_2">
     <g id="line2d_3">
      <path d="M 149.563248 325.303287 
L 149.563248 33.397812 
" clip-path="url(#p94fb8091e2)" style="fill: none; stroke-dasharray: 2.96,1.28; stroke-dashoffset: 0; stroke: #b0b0b0; stroke-opacity: 0.5; stroke-width: 0.8"/>
     </g>
     <g id="line2d_4">
      <g>
       <use xlink:href="#m21ea5c39a8" x="149.563248" y="325.303287" style="stroke: #000000; stroke-width: 0.8"/>
      </g>
     </g>
     <g id="text_2">
      <!-- 2013-11-08 00:00 -->
      <g transform="translate(119.654841 401.395353)rotate(-45)scale(0.1 -0.1)">
       <defs>
        <path id="DejaVuSans-38" d="M 2034 2216 
Q 1584 2216 1326 1975 
Q 1069 1734 1069 1313 
Q 1069 891 1326 650 
Q 1584 409 2034 409 
Q 2484 409 2743 651 
Q 3003 894 3003 1313 
Q 3003 1734 2745 1975 
Q 2488 2216 2034 2216 
z
M 1403 2484 
Q 997 2584 770 2862 
Q 544 3141 544 3541 
Q 544 4100 942 4425 
Q 1341 4750 2034 4750 
Q 2731 4750 3128 4425 
Q 3525 4100 3525 3541 
Q 3525 3141 3298 2862 
Q 3072 2584 2669 2484 
Q 3125 2378 3379 2068 
Q 3634 1759 3634 1313 
Q 3634 634 3220 271 
Q 2806 -91 2034 -91 
Q 1263 -91 848 271 
Q 434 634 434 1313 
Q 434 1759 690 2068 
Q 947 2378 1403 2484 
z
M 1172 3481 
Q 1172 3119 1398 2916 
Q 1625 2713 2034 2713 
Q 2441 2713 2670 2916 
Q 2900 3119 2900 3481 
Q 2900 3844 2670 4047 
Q 2441 4250 2034 4250 
Q 1625 4250 1398 4047 
Q 1172 3844 1172 3481 
z
" transform="scale(0.015625)"/>
       </defs>
       <use xlink:href="#DejaVuSans-32"/>
       <use xlink:href="#DejaVuSans-30" x="63.623047"/>
       <use xlink:href="#DejaVuSans-31" x="127.246094"/>
       <use xlink:href="#DejaVuSans-33" x="190.869141"/>
       <use xlink:href="#DejaVuSans-2d" x="254.492188"/>
       <use xlink:href="#DejaVuSans-31" x="290.576172"/>
       <use xlink:href="#DejaVuSans-31" x="354.199219"/>
       <use xlink:href="#DejaVuSans-2d" x="417.822266"/>
       <use xlink:href="#DejaVuSans-30" x="453.90625"/>
       <use xlink:href="#DejaVuSans-38" x="517.529297"/>
       <use xlink:href="#DejaVuSans-20" x="581.152344"/>
       <use xlink:href="#DejaVuSans-30" x="612.939453"/>
       <use xlink:href="#DejaVuSans-30" x="676.5625"/>
       <use xlink:href="#DejaVuSans-3a" x="740.185547"/>
       <use xlink:href="#DejaVuSans-30" x="773.876953"/>
       <use xlink:href="#DejaVuSans-30" x="837.5"/>
      </g>
     </g>
    </g>
    <g id="xtick_3">
     <g id="line2d_5">
      <path d="M 216.274619 325.303287 
L 216.274619 33.397812 
" clip-path="url(#p94fb8091e2)" style="fill: none; stroke-dasharray: 2.96,1.28; stroke-dashoffset: 0; stroke: #b0b0b0; stroke-opacity: 0.5; stroke-width: 0.8"/>
     </g>
     <g id="line2d_6">
      <g>
       <use xlink:href="#m21ea5c39a8" x="216.274619" y="325.303287" style="stroke: #000000; stroke-width: 0.8"/>
      </g>
     </g>
     <g id="text_3">
      <!-- 2013-11-15 00:00 -->
      <g transform="translate(186.366212 401.395353)rotate(-45)scale(0.1 -0.1)">
       <defs>
        <path id="DejaVuSans-35" d="M 691 4666 
L 3169 4666 
L 3169 4134 
L 1269 4134 
L 1269 2991 
Q 1406 3038 1543 3061 
Q 1681 3084 1819 3084 
Q 2600 3084 3056 2656 
Q 3513 2228 3513 1497 
Q 3513 744 3044 326 
Q 2575 -91 1722 -91 
Q 1428 -91 1123 -41 
Q 819 9 494 109 
L 494 744 
Q 775 591 1075 516 
Q 1375 441 1709 441 
Q 2250 441 2565 725 
Q 2881 1009 2881 1497 
Q 2881 1984 2565 2268 
Q 2250 2553 1709 2553 
Q 1456 2553 1204 2497 
Q 953 2441 691 2322 
L 691 4666 
z
" transform="scale(0.015625)"/>
       </defs>
       <use xlink:href="#DejaVuSans-32"/>
       <use xlink:href="#DejaVuSans-30" x="63.623047"/>
       <use xlink:href="#DejaVuSans-31" x="127.246094"/>
       <use xlink:href="#DejaVuSans-33" x="190.869141"/>
       <use xlink:href="#DejaVuSans-2d" x="254.492188"/>
       <use xlink:href="#DejaVuSans-31" x="290.576172"/>
       <use xlink:href="#DejaVuSans-31" x="354.199219"/>
       <use xlink:href="#DejaVuSans-2d" x="417.822266"/>
       <use xlink:href="#DejaVuSans-31" x="453.90625"/>
       <use xlink:href="#DejaVuSans-35" x="517.529297"/>
       <use xlink:href="#DejaVuSans-20" x="581.152344"/>
       <use xlink:href="#DejaVuSans-30" x="612.939453"/>
       <use xlink:href="#DejaVuSans-30" x="676.5625"/>
       <use xlink:href="#DejaVuSans-3a" x="740.185547"/>
       <use xlink:href="#DejaVuSans-30" x="773.876953"/>
       <use xlink:href="#DejaVuSans-30" x="837.5"/>
      </g>
     </g>
    </g>
    <g id="xtick_4">
     <g id="line2d_7">
      <path d="M 282.98599 325.303287 
L 282.98599 33.397812 
" clip-path="url(#p94fb8091e2)" style="fill: none; stroke-dasharray: 2.96,1.28; stroke-dashoffset: 0; stroke: #b0b0b0; stroke-opacity: 0.5; stroke-width: 0.8"/>
     </g>
     <g id="line2d_8">
      <g>
       <use xlink:href="#m21ea5c39a8" x="282.98599" y="325.303287" style="stroke: #000000; stroke-width: 0.8"/>
      </g>
     </g>
     <g id="text_4">
      <!-- 2013-11-22 00:00 -->
      <g transform="translate(253.077583 401.395353)rotate(-45)scale(0.1 -0.1)">
       <use xlink:href="#DejaVuSans-32"/>
       <use xlink:href="#DejaVuSans-30" x="63.623047"/>
       <use xlink:href="#DejaVuSans-31" x="127.246094"/>
       <use xlink:href="#DejaVuSans-33" x="190.869141"/>
       <use xlink:href="#DejaVuSans-2d" x="254.492188"/>
       <use xlink:href="#DejaVuSans-31" x="290.576172"/>
       <use xlink:href="#DejaVuSans-31" x="354.199219"/>
       <use xlink:href="#DejaVuSans-2d" x="417.822266"/>
       <use xlink:href="#DejaVuSans-32" x="453.90625"/>
       <use xlink:href="#DejaVuSans-32" x="517.529297"/>
       <use xlink:href="#DejaVuSans-20" x="581.152344"/>
       <use xlink:href="#DejaVuSans-30" x="612.939453"/>
       <use xlink:href="#DejaVuSans-30" x="676.5625"/>
       <use xlink:href="#DejaVuSans-3a" x="740.185547"/>
       <use xlink:href="#DejaVuSans-30" x="773.876953"/>
       <use xlink:href="#DejaVuSans-30" x="837.5"/>
      </g>
     </g>
    </g>
    <g id="xtick_5">
     <g id="line2d_9">
      <path d="M 368.757753 325.303287 
L 368.757753 33.397812 
" clip-path="url(#p94fb8091e2)" style="fill: none; stroke-dasharray: 2.96,1.28; stroke-dashoffset: 0; stroke: #b0b0b0; stroke-opacity: 0.5; stroke-width: 0.8"/>
     </g>
     <g id="line2d_10">
      <g>
       <use xlink:href="#m21ea5c39a8" x="368.757753" y="325.303287" style="stroke: #000000; stroke-width: 0.8"/>
      </g>
     </g>
     <g id="text_5">
      <!-- 2013-12-01 00:00 -->
      <g transform="translate(338.849346 401.395353)rotate(-45)scale(0.1 -0.1)">
       <use xlink:href="#DejaVuSans-32"/>
       <use xlink:href="#DejaVuSans-30" x="63.623047"/>
       <use xlink:href="#DejaVuSans-31" x="127.246094"/>
       <use xlink:href="#DejaVuSans-33" x="190.869141"/>
       <use xlink:href="#DejaVuSans-2d" x="254.492188"/>
       <use xlink:href="#DejaVuSans-31" x="290.576172"/>
       <use xlink:href="#DejaVuSans-32" x="354.199219"/>
       <use xlink:href="#DejaVuSans-2d" x="417.822266"/>
       <use xlink:href="#DejaVuSans-30" x="453.90625"/>
       <use xlink:href="#DejaVuSans-31" x="517.529297"/>
       <use xlink:href="#DejaVuSans-20" x="581.152344"/>
       <use xlink:href="#DejaVuSans-30" x="612.939453"/>
       <use xlink:href="#DejaVuSans-30" x="676.5625"/>
       <use xlink:href="#DejaVuSans-3a" x="740.185547"/>
       <use xlink:href="#DejaVuSans-30" x="773.876953"/>
       <use xlink:href="#DejaVuSans-30" x="837.5"/>
      </g>
     </g>
    </g>
    <g id="xtick_6">
     <g id="line2d_11">
      <path d="M 435.469124 325.303287 
L 435.469124 33.397812 
" clip-path="url(#p94fb8091e2)" style="fill: none; stroke-dasharray: 2.96,1.28; stroke-dashoffset: 0; stroke: #b0b0b0; stroke-opacity: 0.5; stroke-width: 0.8"/>
     </g>
     <g id="line2d_12">
      <g>
       <use xlink:href="#m21ea5c39a8" x="435.469124" y="325.303287" style="stroke: #000000; stroke-width: 0.8"/>
      </g>
     </g>
     <g id="text_6">
      <!-- 2013-12-08 00:00 -->
      <g transform="translate(405.560716 401.395353)rotate(-45)scale(0.1 -0.1)">
       <use xlink:href="#DejaVuSans-32"/>
       <use xlink:href="#DejaVuSans-30" x="63.623047"/>
       <use xlink:href="#DejaVuSans-31" x="127.246094"/>
       <use xlink:href="#DejaVuSans-33" x="190.869141"/>
       <use xlink:href="#DejaVuSans-2d" x="254.492188"/>
       <use xlink:href="#DejaVuSans-31" x="290.576172"/>
       <use xlink:href="#DejaVuSans-32" x="354.199219"/>
       <use xlink:href="#DejaVuSans-2d" x="417.822266"/>
       <use xlink:href="#DejaVuSans-30" x="453.90625"/>
       <use xlink:href="#DejaVuSans-38" x="517.529297"/>
       <use xlink:href="#DejaVuSans-20" x="581.152344"/>
       <use xlink:href="#DejaVuSans-30" x="612.939453"/>
       <use xlink:href="#DejaVuSans-30" x="676.5625"/>
       <use xlink:href="#DejaVuSans-3a" x="740.185547"/>
       <use xlink:href="#DejaVuSans-30" x="773.876953"/>
       <use xlink:href="#DejaVuSans-30" x="837.5"/>
      </g>
     </g>
    </g>
    <g id="xtick_7">
     <g id="line2d_13">
      <path d="M 502.180494 325.303287 
L 502.180494 33.397812 
" clip-path="url(#p94fb8091e2)" style="fill: none; stroke-dasharray: 2.96,1.28; stroke-dashoffset: 0; stroke: #b0b0b0; stroke-opacity: 0.5; stroke-width: 0.8"/>
     </g>
     <g id="line2d_14">
      <g>
       <use xlink:href="#m21ea5c39a8" x="502.180494" y="325.303287" style="stroke: #000000; stroke-width: 0.8"/>
      </g>
     </g>
     <g id="text_7">
      <!-- 2013-12-15 00:00 -->
      <g transform="translate(472.272087 401.395353)rotate(-45)scale(0.1 -0.1)">
       <use xlink:href="#DejaVuSans-32"/>
       <use xlink:href="#DejaVuSans-30" x="63.623047"/>
       <use xlink:href="#DejaVuSans-31" x="127.246094"/>
       <use xlink:href="#DejaVuSans-33" x="190.869141"/>
       <use xlink:href="#DejaVuSans-2d" x="254.492188"/>
       <use xlink:href="#DejaVuSans-31" x="290.576172"/>
       <use xlink:href="#DejaVuSans-32" x="354.199219"/>
       <use xlink:href="#DejaVuSans-2d" x="417.822266"/>
       <use xlink:href="#DejaVuSans-31" x="453.90625"/>
       <use xlink:href="#DejaVuSans-35" x="517.529297"/>
       <use xlink:href="#DejaVuSans-20" x="581.152344"/>
       <use xlink:href="#DejaVuSans-30" x="612.939453"/>
       <use xlink:href="#DejaVuSans-30" x="676.5625"/>
       <use xlink:href="#DejaVuSans-3a" x="740.185547"/>
       <use xlink:href="#DejaVuSans-30" x="773.876953"/>
       <use xlink:href="#DejaVuSans-30" x="837.5"/>
      </g>
     </g>
    </g>
    <g id="xtick_8">
     <g id="line2d_15">
      <path d="M 568.891865 325.303287 
L 568.891865 33.397812 
" clip-path="url(#p94fb8091e2)" style="fill: none; stroke-dasharray: 2.96,1.28; stroke-dashoffset: 0; stroke: #b0b0b0; stroke-opacity: 0.5; stroke-width: 0.8"/>
     </g>
     <g id="line2d_16">
      <g>
       <use xlink:href="#m21ea5c39a8" x="568.891865" y="325.303287" style="stroke: #000000; stroke-width: 0.8"/>
      </g>
     </g>
     <g id="text_8">
      <!-- 2013-12-22 00:00 -->
      <g transform="translate(538.983458 401.395353)rotate(-45)scale(0.1 -0.1)">
       <use xlink:href="#DejaVuSans-32"/>
       <use xlink:href="#DejaVuSans-30" x="63.623047"/>
       <use xlink:href="#DejaVuSans-31" x="127.246094"/>
       <use xlink:href="#DejaVuSans-33" x="190.869141"/>
       <use xlink:href="#DejaVuSans-2d" x="254.492188"/>
       <use xlink:href="#DejaVuSans-31" x="290.576172"/>
       <use xlink:href="#DejaVuSans-32" x="354.199219"/>
       <use xlink:href="#DejaVuSans-2d" x="417.822266"/>
       <use xlink:href="#DejaVuSans-32" x="453.90625"/>
       <use xlink:href="#DejaVuSans-32" x="517.529297"/>
       <use xlink:href="#DejaVuSans-20" x="581.152344"/>
       <use xlink:href="#DejaVuSans-30" x="612.939453"/>
       <use xlink:href="#DejaVuSans-30" x="676.5625"/>
       <use xlink:href="#DejaVuSans-3a" x="740.185547"/>
       <use xlink:href="#DejaVuSans-30" x="773.876953"/>
       <use xlink:href="#DejaVuSans-30" x="837.5"/>
      </g>
     </g>
    </g>
    <g id="xtick_9">
     <g id="line2d_17">
      <path d="M 664.193824 325.303287 
L 664.193824 33.397812 
" clip-path="url(#p94fb8091e2)" style="fill: none; stroke-dasharray: 2.96,1.28; stroke-dashoffset: 0; stroke: #b0b0b0; stroke-opacity: 0.5; stroke-width: 0.8"/>
     </g>
     <g id="line2d_18">
      <g>
       <use xlink:href="#m21ea5c39a8" x="664.193824" y="325.303287" style="stroke: #000000; stroke-width: 0.8"/>
      </g>
     </g>
     <g id="text_9">
      <!-- 2014-01-01 00:00 -->
      <g transform="translate(634.285416 401.395353)rotate(-45)scale(0.1 -0.1)">
       <defs>
        <path id="DejaVuSans-34" d="M 2419 4116 
L 825 1625 
L 2419 1625 
L 2419 4116 
z
M 2253 4666 
L 3047 4666 
L 3047 1625 
L 3713 1625 
L 3713 1100 
L 3047 1100 
L 3047 0 
L 2419 0 
L 2419 1100 
L 313 1100 
L 313 1709 
L 2253 4666 
z
" transform="scale(0.015625)"/>
       </defs>
       <use xlink:href="#DejaVuSans-32"/>
       <use xlink:href="#DejaVuSans-30" x="63.623047"/>
       <use xlink:href="#DejaVuSans-31" x="127.246094"/>
       <use xlink:href="#DejaVuSans-34" x="190.869141"/>
       <use xlink:href="#DejaVuSans-2d" x="254.492188"/>
       <use xlink:href="#DejaVuSans-30" x="290.576172"/>
       <use xlink:href="#DejaVuSans-31" x="354.199219"/>
       <use xlink:href="#DejaVuSans-2d" x="417.822266"/>
       <use xlink:href="#DejaVuSans-30" x="453.90625"/>
       <use xlink:href="#DejaVuSans-31" x="517.529297"/>
       <use xlink:href="#DejaVuSans-20" x="581.152344"/>
       <use xlink:href="#DejaVuSans-30" x="612.939453"/>
       <use xlink:href="#DejaVuSans-30" x="676.5625"/>
       <use xlink:href="#DejaVuSans-3a" x="740.185547"/>
       <use xlink:href="#DejaVuSans-30" x="773.876953"/>
       <use xlink:href="#DejaVuSans-30" x="837.5"/>
      </g>
     </g>
    </g>
    <g id="text_10">
     <!-- Tiempo -->
     <g transform="translate(359.622215 414.464352)scale(0.1 -0.1)">
      <defs>
       <path id="DejaVuSans-54" d="M -19 4666 
L 3928 4666 
L 3928 4134 
L 2272 4134 
L 2272 0 
L 1638 0 
L 1638 4134 
L -19 4134 
L -19 4666 
z
" transform="scale(0.015625)"/>
       <path id="DejaVuSans-69" d="M 603 3500 
L 1178 3500 
L 1178 0 
L 603 0 
L 603 3500 
z
M 603 4863 
L 1178 4863 
L 1178 4134 
L 603 4134 
L 603 4863 
z
" transform="scale(0.015625)"/>
       <path id="DejaVuSans-65" d="M 3597 1894 
L 3597 1613 
L 953 1613 
Q 991 1019 1311 708 
Q 1631 397 2203 397 
Q 2534 397 2845 478 
Q 3156 559 3463 722 
L 3463 178 
Q 3153 47 2828 -22 
Q 2503 -91 2169 -91 
Q 1331 -91 842 396 
Q 353 884 353 1716 
Q 353 2575 817 3079 
Q 1281 3584 2069 3584 
Q 2775 3584 3186 3129 
Q 3597 2675 3597 1894 
z
M 3022 2063 
Q 3016 2534 2758 2815 
Q 2500 3097 2075 3097 
Q 1594 3097 1305 2825 
Q 1016 2553 972 2059 
L 3022 2063 
z
" transform="scale(0.015625)"/>
       <path id="DejaVuSans-6d" d="M 3328 2828 
Q 3544 3216 3844 3400 
Q 4144 3584 4550 3584 
Q 5097 3584 5394 3201 
Q 5691 2819 5691 2113 
L 5691 0 
L 5113 0 
L 5113 2094 
Q 5113 2597 4934 2840 
Q 4756 3084 4391 3084 
Q 3944 3084 3684 2787 
Q 3425 2491 3425 1978 
L 3425 0 
L 2847 0 
L 2847 2094 
Q 2847 2600 2669 2842 
Q 2491 3084 2119 3084 
Q 1678 3084 1418 2786 
Q 1159 2488 1159 1978 
L 1159 0 
L 581 0 
L 581 3500 
L 1159 3500 
L 1159 2956 
Q 1356 3278 1631 3431 
Q 1906 3584 2284 3584 
Q 2666 3584 2933 3390 
Q 3200 3197 3328 2828 
z
" transform="scale(0.015625)"/>
       <path id="DejaVuSans-70" d="M 1159 525 
L 1159 -1331 
L 581 -1331 
L 581 3500 
L 1159 3500 
L 1159 2969 
Q 1341 3281 1617 3432 
Q 1894 3584 2278 3584 
Q 2916 3584 3314 3078 
Q 3713 2572 3713 1747 
Q 3713 922 3314 415 
Q 2916 -91 2278 -91 
Q 1894 -91 1617 61 
Q 1341 213 1159 525 
z
M 3116 1747 
Q 3116 2381 2855 2742 
Q 2594 3103 2138 3103 
Q 1681 3103 1420 2742 
Q 1159 2381 1159 1747 
Q 1159 1113 1420 752 
Q 1681 391 2138 391 
Q 2594 391 2855 752 
Q 3116 1113 3116 1747 
z
" transform="scale(0.015625)"/>
       <path id="DejaVuSans-6f" d="M 1959 3097 
Q 1497 3097 1228 2736 
Q 959 2375 959 1747 
Q 959 1119 1226 758 
Q 1494 397 1959 397 
Q 2419 397 2687 759 
Q 2956 1122 2956 1747 
Q 2956 2369 2687 2733 
Q 2419 3097 1959 3097 
z
M 1959 3584 
Q 2709 3584 3137 3096 
Q 3566 2609 3566 1747 
Q 3566 888 3137 398 
Q 2709 -91 1959 -91 
Q 1206 -91 779 398 
Q 353 888 353 1747 
Q 353 2609 779 3096 
Q 1206 3584 1959 3584 
z
" transform="scale(0.015625)"/>
      </defs>
      <use xlink:href="#DejaVuSans-54"/>
      <use xlink:href="#DejaVuSans-69" x="57.958984"/>
      <use xlink:href="#DejaVuSans-65" x="85.742188"/>
      <use xlink:href="#DejaVuSans-6d" x="147.265625"/>
      <use xlink:href="#DejaVuSans-70" x="244.677734"/>
      <use xlink:href="#DejaVuSans-6f" x="308.154297"/>
     </g>
    </g>
   </g>
   <g id="matplotlib.axis_2">
    <g id="ytick_1">
     <g id="line2d_19">
      <path d="M 53.328125 301.027561 
L 702.85068 301.027561 
" clip-path="url(#p94fb8091e2)" style="fill: none; stroke-dasharray: 2.96,1.28; stroke-dashoffset: 0; stroke: #b0b0b0; stroke-opacity: 0.5; stroke-width: 0.8"/>
     </g>
     <g id="line2d_20">
      <defs>
       <path id="m082df2103f" d="M 0 0 
L -3.5 0 
" style="stroke: #000000; stroke-width: 0.8"/>
      </defs>
      <g>
       <use xlink:href="#m082df2103f" x="53.328125" y="301.027561" style="stroke: #000000; stroke-width: 0.8"/>
      </g>
     </g>
     <g id="text_11">
      <!-- 1000 -->
      <g transform="translate(20.878125 304.826779)scale(0.1 -0.1)">
       <use xlink:href="#DejaVuSans-31"/>
       <use xlink:href="#DejaVuSans-30" x="63.623047"/>
       <use xlink:href="#DejaVuSans-30" x="127.246094"/>
       <use xlink:href="#DejaVuSans-30" x="190.869141"/>
      </g>
     </g>
    </g>
    <g id="ytick_2">
     <g id="line2d_21">
      <path d="M 53.328125 268.499108 
L 702.85068 268.499108 
" clip-path="url(#p94fb8091e2)" style="fill: none; stroke-dasharray: 2.96,1.28; stroke-dashoffset: 0; stroke: #b0b0b0; stroke-opacity: 0.5; stroke-width: 0.8"/>
     </g>
     <g id="line2d_22">
      <g>
       <use xlink:href="#m082df2103f" x="53.328125" y="268.499108" style="stroke: #000000; stroke-width: 0.8"/>
      </g>
     </g>
     <g id="text_12">
      <!-- 2000 -->
      <g transform="translate(20.878125 272.298326)scale(0.1 -0.1)">
       <use xlink:href="#DejaVuSans-32"/>
       <use xlink:href="#DejaVuSans-30" x="63.623047"/>
       <use xlink:href="#DejaVuSans-30" x="127.246094"/>
       <use xlink:href="#DejaVuSans-30" x="190.869141"/>
      </g>
     </g>
    </g>
    <g id="ytick_3">
     <g id="line2d_23">
      <path d="M 53.328125 235.970654 
L 702.85068 235.970654 
" clip-path="url(#p94fb8091e2)" style="fill: none; stroke-dasharray: 2.96,1.28; stroke-dashoffset: 0; stroke: #b0b0b0; stroke-opacity: 0.5; stroke-width: 0.8"/>
     </g>
     <g id="line2d_24">
      <g>
       <use xlink:href="#m082df2103f" x="53.328125" y="235.970654" style="stroke: #000000; stroke-width: 0.8"/>
      </g>
     </g>
     <g id="text_13">
      <!-- 3000 -->
      <g transform="translate(20.878125 239.769873)scale(0.1 -0.1)">
       <use xlink:href="#DejaVuSans-33"/>
       <use xlink:href="#DejaVuSans-30" x="63.623047"/>
       <use xlink:href="#DejaVuSans-30" x="127.246094"/>
       <use xlink:href="#DejaVuSans-30" x="190.869141"/>
      </g>
     </g>
    </g>
    <g id="ytick_4">
     <g id="line2d_25">
      <path d="M 53.328125 203.442201 
L 702.85068 203.442201 
" clip-path="url(#p94fb8091e2)" style="fill: none; stroke-dasharray: 2.96,1.28; stroke-dashoffset: 0; stroke: #b0b0b0; stroke-opacity: 0.5; stroke-width: 0.8"/>
     </g>
     <g id="line2d_26">
      <g>
       <use xlink:href="#m082df2103f" x="53.328125" y="203.442201" style="stroke: #000000; stroke-width: 0.8"/>
      </g>
     </g>
     <g id="text_14">
      <!-- 4000 -->
      <g transform="translate(20.878125 207.24142)scale(0.1 -0.1)">
       <use xlink:href="#DejaVuSans-34"/>
       <use xlink:href="#DejaVuSans-30" x="63.623047"/>
       <use xlink:href="#DejaVuSans-30" x="127.246094"/>
       <use xlink:href="#DejaVuSans-30" x="190.869141"/>
      </g>
     </g>
    </g>
    <g id="ytick_5">
     <g id="line2d_27">
      <path d="M 53.328125 170.913748 
L 702.85068 170.913748 
" clip-path="url(#p94fb8091e2)" style="fill: none; stroke-dasharray: 2.96,1.28; stroke-dashoffset: 0; stroke: #b0b0b0; stroke-opacity: 0.5; stroke-width: 0.8"/>
     </g>
     <g id="line2d_28">
      <g>
       <use xlink:href="#m082df2103f" x="53.328125" y="170.913748" style="stroke: #000000; stroke-width: 0.8"/>
      </g>
     </g>
     <g id="text_15">
      <!-- 5000 -->
      <g transform="translate(20.878125 174.712967)scale(0.1 -0.1)">
       <use xlink:href="#DejaVuSans-35"/>
       <use xlink:href="#DejaVuSans-30" x="63.623047"/>
       <use xlink:href="#DejaVuSans-30" x="127.246094"/>
       <use xlink:href="#DejaVuSans-30" x="190.869141"/>
      </g>
     </g>
    </g>
    <g id="ytick_6">
     <g id="line2d_29">
      <path d="M 53.328125 138.385295 
L 702.85068 138.385295 
" clip-path="url(#p94fb8091e2)" style="fill: none; stroke-dasharray: 2.96,1.28; stroke-dashoffset: 0; stroke: #b0b0b0; stroke-opacity: 0.5; stroke-width: 0.8"/>
     </g>
     <g id="line2d_30">
      <g>
       <use xlink:href="#m082df2103f" x="53.328125" y="138.385295" style="stroke: #000000; stroke-width: 0.8"/>
      </g>
     </g>
     <g id="text_16">
      <!-- 6000 -->
      <g transform="translate(20.878125 142.184514)scale(0.1 -0.1)">
       <defs>
        <path id="DejaVuSans-36" d="M 2113 2584 
Q 1688 2584 1439 2293 
Q 1191 2003 1191 1497 
Q 1191 994 1439 701 
Q 1688 409 2113 409 
Q 2538 409 2786 701 
Q 3034 994 3034 1497 
Q 3034 2003 2786 2293 
Q 2538 2584 2113 2584 
z
M 3366 4563 
L 3366 3988 
Q 3128 4100 2886 4159 
Q 2644 4219 2406 4219 
Q 1781 4219 1451 3797 
Q 1122 3375 1075 2522 
Q 1259 2794 1537 2939 
Q 1816 3084 2150 3084 
Q 2853 3084 3261 2657 
Q 3669 2231 3669 1497 
Q 3669 778 3244 343 
Q 2819 -91 2113 -91 
Q 1303 -91 875 529 
Q 447 1150 447 2328 
Q 447 3434 972 4092 
Q 1497 4750 2381 4750 
Q 2619 4750 2861 4703 
Q 3103 4656 3366 4563 
z
" transform="scale(0.015625)"/>
       </defs>
       <use xlink:href="#DejaVuSans-36"/>
       <use xlink:href="#DejaVuSans-30" x="63.623047"/>
       <use xlink:href="#DejaVuSans-30" x="127.246094"/>
       <use xlink:href="#DejaVuSans-30" x="190.869141"/>
      </g>
     </g>
    </g>
    <g id="ytick_7">
     <g id="line2d_31">
      <path d="M 53.328125 105.856842 
L 702.85068 105.856842 
" clip-path="url(#p94fb8091e2)" style="fill: none; stroke-dasharray: 2.96,1.28; stroke-dashoffset: 0; stroke: #b0b0b0; stroke-opacity: 0.5; stroke-width: 0.8"/>
     </g>
     <g id="line2d_32">
      <g>
       <use xlink:href="#m082df2103f" x="53.328125" y="105.856842" style="stroke: #000000; stroke-width: 0.8"/>
      </g>
     </g>
     <g id="text_17">
      <!-- 7000 -->
      <g transform="translate(20.878125 109.656061)scale(0.1 -0.1)">
       <defs>
        <path id="DejaVuSans-37" d="M 525 4666 
L 3525 4666 
L 3525 4397 
L 1831 0 
L 1172 0 
L 2766 4134 
L 525 4134 
L 525 4666 
z
" transform="scale(0.015625)"/>
       </defs>
       <use xlink:href="#DejaVuSans-37"/>
       <use xlink:href="#DejaVuSans-30" x="63.623047"/>
       <use xlink:href="#DejaVuSans-30" x="127.246094"/>
       <use xlink:href="#DejaVuSans-30" x="190.869141"/>
      </g>
     </g>
    </g>
    <g id="ytick_8">
     <g id="line2d_33">
      <path d="M 53.328125 73.328389 
L 702.85068 73.328389 
" clip-path="url(#p94fb8091e2)" style="fill: none; stroke-dasharray: 2.96,1.28; stroke-dashoffset: 0; stroke: #b0b0b0; stroke-opacity: 0.5; stroke-width: 0.8"/>
     </g>
     <g id="line2d_34">
      <g>
       <use xlink:href="#m082df2103f" x="53.328125" y="73.328389" style="stroke: #000000; stroke-width: 0.8"/>
      </g>
     </g>
     <g id="text_18">
      <!-- 8000 -->
      <g transform="translate(20.878125 77.127608)scale(0.1 -0.1)">
       <use xlink:href="#DejaVuSans-38"/>
       <use xlink:href="#DejaVuSans-30" x="63.623047"/>
       <use xlink:href="#DejaVuSans-30" x="127.246094"/>
       <use xlink:href="#DejaVuSans-30" x="190.869141"/>
      </g>
     </g>
    </g>
    <g id="ytick_9">
     <g id="line2d_35">
      <path d="M 53.328125 40.799936 
L 702.85068 40.799936 
" clip-path="url(#p94fb8091e2)" style="fill: none; stroke-dasharray: 2.96,1.28; stroke-dashoffset: 0; stroke: #b0b0b0; stroke-opacity: 0.5; stroke-width: 0.8"/>
     </g>
     <g id="line2d_36">
      <g>
       <use xlink:href="#m082df2103f" x="53.328125" y="40.799936" style="stroke: #000000; stroke-width: 0.8"/>
      </g>
     </g>
     <g id="text_19">
      <!-- 9000 -->
      <g transform="translate(20.878125 44.599155)scale(0.1 -0.1)">
       <defs>
        <path id="DejaVuSans-39" d="M 703 97 
L 703 672 
Q 941 559 1184 500 
Q 1428 441 1663 441 
Q 2288 441 2617 861 
Q 2947 1281 2994 2138 
Q 2813 1869 2534 1725 
Q 2256 1581 1919 1581 
Q 1219 1581 811 2004 
Q 403 2428 403 3163 
Q 403 3881 828 4315 
Q 1253 4750 1959 4750 
Q 2769 4750 3195 4129 
Q 3622 3509 3622 2328 
Q 3622 1225 3098 567 
Q 2575 -91 1691 -91 
Q 1453 -91 1209 -44 
Q 966 3 703 97 
z
M 1959 2075 
Q 2384 2075 2632 2365 
Q 2881 2656 2881 3163 
Q 2881 3666 2632 3958 
Q 2384 4250 1959 4250 
Q 1534 4250 1286 3958 
Q 1038 3666 1038 3163 
Q 1038 2656 1286 2365 
Q 1534 2075 1959 2075 
z
" transform="scale(0.015625)"/>
       </defs>
       <use xlink:href="#DejaVuSans-39"/>
       <use xlink:href="#DejaVuSans-30" x="63.623047"/>
       <use xlink:href="#DejaVuSans-30" x="127.246094"/>
       <use xlink:href="#DejaVuSans-30" x="190.869141"/>
      </g>
     </g>
    </g>
    <g id="text_20">
     <!-- Volumen de Tráfico -->
     <g transform="translate(14.798438 226.938831)rotate(-90)scale(0.1 -0.1)">
      <defs>
       <path id="DejaVuSans-56" d="M 1831 0 
L 50 4666 
L 709 4666 
L 2188 738 
L 3669 4666 
L 4325 4666 
L 2547 0 
L 1831 0 
z
" transform="scale(0.015625)"/>
       <path id="DejaVuSans-6c" d="M 603 4863 
L 1178 4863 
L 1178 0 
L 603 0 
L 603 4863 
z
" transform="scale(0.015625)"/>
       <path id="DejaVuSans-75" d="M 544 1381 
L 544 3500 
L 1119 3500 
L 1119 1403 
Q 1119 906 1312 657 
Q 1506 409 1894 409 
Q 2359 409 2629 706 
Q 2900 1003 2900 1516 
L 2900 3500 
L 3475 3500 
L 3475 0 
L 2900 0 
L 2900 538 
Q 2691 219 2414 64 
Q 2138 -91 1772 -91 
Q 1169 -91 856 284 
Q 544 659 544 1381 
z
M 1991 3584 
L 1991 3584 
z
" transform="scale(0.015625)"/>
       <path id="DejaVuSans-6e" d="M 3513 2113 
L 3513 0 
L 2938 0 
L 2938 2094 
Q 2938 2591 2744 2837 
Q 2550 3084 2163 3084 
Q 1697 3084 1428 2787 
Q 1159 2491 1159 1978 
L 1159 0 
L 581 0 
L 581 3500 
L 1159 3500 
L 1159 2956 
Q 1366 3272 1645 3428 
Q 1925 3584 2291 3584 
Q 2894 3584 3203 3211 
Q 3513 2838 3513 2113 
z
" transform="scale(0.015625)"/>
       <path id="DejaVuSans-64" d="M 2906 2969 
L 2906 4863 
L 3481 4863 
L 3481 0 
L 2906 0 
L 2906 525 
Q 2725 213 2448 61 
Q 2172 -91 1784 -91 
Q 1150 -91 751 415 
Q 353 922 353 1747 
Q 353 2572 751 3078 
Q 1150 3584 1784 3584 
Q 2172 3584 2448 3432 
Q 2725 3281 2906 2969 
z
M 947 1747 
Q 947 1113 1208 752 
Q 1469 391 1925 391 
Q 2381 391 2643 752 
Q 2906 1113 2906 1747 
Q 2906 2381 2643 2742 
Q 2381 3103 1925 3103 
Q 1469 3103 1208 2742 
Q 947 2381 947 1747 
z
" transform="scale(0.015625)"/>
       <path id="DejaVuSans-72" d="M 2631 2963 
Q 2534 3019 2420 3045 
Q 2306 3072 2169 3072 
Q 1681 3072 1420 2755 
Q 1159 2438 1159 1844 
L 1159 0 
L 581 0 
L 581 3500 
L 1159 3500 
L 1159 2956 
Q 1341 3275 1631 3429 
Q 1922 3584 2338 3584 
Q 2397 3584 2469 3576 
Q 2541 3569 2628 3553 
L 2631 2963 
z
" transform="scale(0.015625)"/>
       <path id="DejaVuSans-e1" d="M 2194 1759 
Q 1497 1759 1228 1600 
Q 959 1441 959 1056 
Q 959 750 1161 570 
Q 1363 391 1709 391 
Q 2188 391 2477 730 
Q 2766 1069 2766 1631 
L 2766 1759 
L 2194 1759 
z
M 3341 1997 
L 3341 0 
L 2766 0 
L 2766 531 
Q 2569 213 2275 61 
Q 1981 -91 1556 -91 
Q 1019 -91 701 211 
Q 384 513 384 1019 
Q 384 1609 779 1909 
Q 1175 2209 1959 2209 
L 2766 2209 
L 2766 2266 
Q 2766 2663 2505 2880 
Q 2244 3097 1772 3097 
Q 1472 3097 1187 3025 
Q 903 2953 641 2809 
L 641 3341 
Q 956 3463 1253 3523 
Q 1550 3584 1831 3584 
Q 2591 3584 2966 3190 
Q 3341 2797 3341 1997 
z
M 2291 5119 
L 2913 5119 
L 1894 3944 
L 1416 3944 
L 2291 5119 
z
" transform="scale(0.015625)"/>
       <path id="DejaVuSans-66" d="M 2375 4863 
L 2375 4384 
L 1825 4384 
Q 1516 4384 1395 4259 
Q 1275 4134 1275 3809 
L 1275 3500 
L 2222 3500 
L 2222 3053 
L 1275 3053 
L 1275 0 
L 697 0 
L 697 3053 
L 147 3053 
L 147 3500 
L 697 3500 
L 697 3744 
Q 697 4328 969 4595 
Q 1241 4863 1831 4863 
L 2375 4863 
z
" transform="scale(0.015625)"/>
       <path id="DejaVuSans-63" d="M 3122 3366 
L 3122 2828 
Q 2878 2963 2633 3030 
Q 2388 3097 2138 3097 
Q 1578 3097 1268 2742 
Q 959 2388 959 1747 
Q 959 1106 1268 751 
Q 1578 397 2138 397 
Q 2388 397 2633 464 
Q 2878 531 3122 666 
L 3122 134 
Q 2881 22 2623 -34 
Q 2366 -91 2075 -91 
Q 1284 -91 818 406 
Q 353 903 353 1747 
Q 353 2603 823 3093 
Q 1294 3584 2113 3584 
Q 2378 3584 2631 3529 
Q 2884 3475 3122 3366 
z
" transform="scale(0.015625)"/>
      </defs>
      <use xlink:href="#DejaVuSans-56"/>
      <use xlink:href="#DejaVuSans-6f" x="60.658203"/>
      <use xlink:href="#DejaVuSans-6c" x="121.839844"/>
      <use xlink:href="#DejaVuSans-75" x="149.623047"/>
      <use xlink:href="#DejaVuSans-6d" x="213.001953"/>
      <use xlink:href="#DejaVuSans-65" x="310.414062"/>
      <use xlink:href="#DejaVuSans-6e" x="371.9375"/>
      <use xlink:href="#DejaVuSans-20" x="435.316406"/>
      <use xlink:href="#DejaVuSans-64" x="467.103516"/>
      <use xlink:href="#DejaVuSans-65" x="530.580078"/>
      <use xlink:href="#DejaVuSans-20" x="592.103516"/>
      <use xlink:href="#DejaVuSans-54" x="623.890625"/>
      <use xlink:href="#DejaVuSans-72" x="670.224609"/>
      <use xlink:href="#DejaVuSans-e1" x="711.337891"/>
      <use xlink:href="#DejaVuSans-66" x="772.617188"/>
      <use xlink:href="#DejaVuSans-69" x="807.822266"/>
      <use xlink:href="#DejaVuSans-63" x="835.605469"/>
      <use xlink:href="#DejaVuSans-6f" x="890.585938"/>
     </g>
    </g>
   </g>
   <g id="line2d_37">
    <path d="M 82.851878 171.955607 
L 83.646061 249.042011 
L 84.043152 272.818919 
L 84.440243 278.155434 
L 84.837335 279.913126 
L 85.631518 277.399405 
L 86.028609 264.519128 
L 86.425701 256.952294 
L 86.822792 244.926454 
L 87.219884 243.467407 
L 88.014067 230.63662 
L 88.411158 217.226251 
L 89.205341 209.00374 
L 89.602433 219.188907 
L 89.999524 204.852568 
L 90.793707 198.756122 
L 91.190799 190.155395 
L 91.58789 191.1052 
L 91.984982 200.111304 
L 93.573348 288.642762 
L 93.970439 297.223212 
L 94.764622 288.682531 
L 95.161714 292.220345 
L 95.558805 279.907939 
L 95.955897 232.444669 
L 96.352988 252.833072 
L 96.75008 230.489488 
L 97.544263 202.141864 
L 97.941354 177.245512 
L 98.338446 171.271162 
L 98.735537 195.807874 
L 99.132629 192.888543 
L 99.52972 186.096346 
L 99.926812 199.720697 
L 100.720995 181.983574 
L 101.118086 183.004359 
L 101.515178 188.901935 
L 101.912269 180.382933 
L 102.706452 260.840631 
L 103.103544 283.435228 
L 103.500635 295.504402 
L 103.897727 294.207123 
L 104.294818 286.931176 
L 104.69191 295.287496 
L 105.486093 272.809663 
L 105.883184 264.720294 
L 106.280276 262.327076 
L 106.677367 246.50832 
L 107.074459 239.080415 
L 107.47155 225.661187 
L 107.868642 219.302442 
L 108.265733 216.651159 
L 108.662825 214.992728 
L 109.059916 222.458181 
L 109.457008 205.518747 
L 109.854099 213.559553 
L 110.251191 207.995384 
L 110.648282 218.396666 
L 111.045374 217.333743 
L 111.442465 242.044101 
L 111.839557 258.969338 
L 112.63374 280.566452 
L 113.030831 282.353424 
L 113.427923 278.090498 
L 113.825014 269.639954 
L 114.222105 255.822843 
L 115.016288 170.275241 
L 115.41338 164.696326 
L 115.810471 148.685384 
L 116.207563 116.454008 
L 116.604654 121.680135 
L 117.001746 131.853369 
L 117.398837 151.817483 
L 117.795929 160.774262 
L 118.19302 157.057425 
L 118.590112 178.676485 
L 118.987203 175.616023 
L 119.384295 193.704989 
L 119.781386 164.316009 
L 120.575569 183.383751 
L 120.972661 211.19466 
L 121.369752 251.942687 
L 121.766844 257.997943 
L 122.163935 271.564474 
L 122.561027 273.908179 
L 122.958118 273.420104 
L 123.35521 268.353827 
L 123.752301 245.458369 
L 124.546484 160.779114 
L 124.943576 150.623412 
L 125.340667 135.526542 
L 125.737759 115.785636 
L 126.13485 90.389497 
L 126.531942 87.559317 
L 126.929033 151.13434 
L 127.326125 153.510623 
L 127.723216 149.041664 
L 128.120308 154.989431 
L 128.517399 169.706275 
L 128.914491 178.756907 
L 129.708674 163.547338 
L 130.105765 175.521684 
L 130.502857 209.567498 
L 131.694131 261.311618 
L 132.488314 268.416136 
L 132.885406 263.342057 
L 133.282497 238.889722 
L 134.07668 161.871487 
L 134.870863 134.635943 
L 135.267955 109.15085 
L 135.665046 97.0958 
L 136.459229 132.713765 
L 136.856321 135.081245 
L 137.253412 164.399013 
L 137.650504 161.641565 
L 138.047595 165.413078 
L 138.444687 177.755961 
L 138.841778 153.089904 
L 139.23887 151.65397 
L 139.635961 172.456683 
L 140.033053 199.986519 
L 140.430144 236.887485 
L 141.224327 265.336588 
L 142.01851 274.476031 
L 142.415602 263.31159 
L 142.812693 234.505213 
L 143.606876 161.415553 
L 144.003967 145.25914 
L 144.401059 118.380687 
L 144.79815 120.838953 
L 145.195242 90.8636 
L 145.592333 104.9668 
L 145.989425 127.430117 
L 146.386516 123.851298 
L 147.180699 163.532727 
L 147.577791 158.680698 
L 147.974882 146.06103 
L 148.371974 125.959696 
L 149.563248 193.030339 
L 150.357431 253.871288 
L 150.754523 262.387486 
L 151.548706 266.332809 
L 151.945797 252.479426 
L 152.342889 232.088893 
L 152.73998 191.568759 
L 153.137072 177.123628 
L 153.534163 152.695007 
L 154.328346 123.207817 
L 154.725438 81.824774 
L 155.122529 86.159135 
L 155.519621 121.815196 
L 155.916712 127.867296 
L 156.313804 149.846965 
L 156.710895 156.825899 
L 157.107987 148.616866 
L 157.505078 169.491811 
L 157.90217 161.19498 
L 158.299261 134.507214 
L 158.696353 151.526603 
L 159.093444 123.288084 
L 159.490536 195.993126 
L 159.887627 247.924028 
L 160.284719 255.570938 
L 160.68181 272.155182 
L 161.078902 269.651596 
L 161.475993 268.10525 
L 161.873085 262.847935 
L 162.667268 199.959015 
L 163.064359 184.64924 
L 163.461451 159.18799 
L 163.858542 145.068486 
L 164.255634 170.588966 
L 164.652725 154.021657 
L 165.049817 146.850825 
L 165.446908 175.566578 
L 165.844 169.658041 
L 166.241091 169.81748 
L 166.638183 179.197314 
L 167.432366 133.565293 
L 167.829457 127.220495 
L 168.226549 129.650994 
L 169.020732 189.64248 
L 169.814915 259.932135 
L 170.212006 264.881505 
L 170.609098 281.824296 
L 171.006189 282.028736 
L 171.403281 279.975858 
L 171.800372 271.31394 
L 172.197464 257.795997 
L 172.594555 249.368826 
L 172.991646 232.584267 
L 173.388738 169.732256 
L 173.785829 160.068108 
L 174.182921 147.436671 
L 174.580012 176.28912 
L 174.977104 166.770198 
L 175.374195 182.325035 
L 175.771287 182.903843 
L 176.168378 189.990692 
L 176.56547 168.605478 
L 176.962561 175.877759 
L 177.359653 176.101754 
L 178.948019 263.378471 
L 179.34511 271.023141 
L 179.742202 276.022869 
L 180.139293 278.898276 
L 180.536385 276.497607 
L 180.933476 248.806904 
L 181.330568 200.098606 
L 181.727659 181.048002 
L 182.521842 135.398031 
L 182.918934 131.121745 
L 183.316025 106.754296 
L 183.713117 123.911542 
L 184.110208 132.894759 
L 184.5073 145.706013 
L 184.904391 146.449552 
L 185.301483 154.748889 
L 185.698574 167.440058 
L 186.095666 171.511444 
L 186.492757 160.70485 
L 186.889849 161.153213 
L 187.28694 169.983322 
L 188.478215 253.571798 
L 188.875306 262.472282 
L 189.272398 268.497474 
L 189.669489 264.198957 
L 190.066581 258.574636 
L 190.463672 240.746045 
L 190.860764 194.697976 
L 191.257855 164.332787 
L 191.654947 148.462874 
L 192.44913 75.583644 
L 192.846221 78.971532 
L 193.243313 108.173777 
L 193.640404 113.564921 
L 194.037496 136.746644 
L 194.434587 131.260046 
L 194.831679 143.873219 
L 195.22877 143.840552 
L 195.625862 153.344751 
L 196.022953 168.279409 
L 196.420045 164.961109 
L 196.817136 177.689148 
L 197.214228 196.72716 
L 197.611319 229.395773 
L 198.008411 249.668543 
L 198.405502 252.60346 
L 198.802594 260.017635 
L 199.199685 260.544081 
L 199.596777 254.041471 
L 199.993868 232.586771 
L 200.788051 153.824119 
L 201.185143 137.308201 
L 201.582234 108.589678 
L 201.979325 99.410193 
L 202.376417 63.867332 
L 202.773508 93.735929 
L 203.1706 107.11023 
L 203.567691 132.002879 
L 203.964783 128.39945 
L 204.361874 147.747512 
L 204.758966 144.20588 
L 205.156057 149.377613 
L 205.553149 142.22358 
L 205.95024 164.616407 
L 206.347332 147.697156 
L 206.744423 211.677938 
L 207.538606 254.167638 
L 207.935698 268.890724 
L 208.332789 274.463623 
L 208.729881 272.401092 
L 209.126972 268.446319 
L 209.524064 233.004966 
L 209.921155 173.064084 
L 210.318247 131.507881 
L 210.715338 112.234363 
L 211.11243 110.835365 
L 211.509521 105.773202 
L 211.906613 85.50289 
L 212.700796 121.780972 
L 213.097887 132.686203 
L 213.494979 140.340598 
L 213.89207 164.627722 
L 214.289162 168.505301 
L 214.686253 169.406212 
L 215.877528 127.008657 
L 216.274619 181.375926 
L 216.671711 211.780357 
L 217.068802 255.504862 
L 217.465894 259.383956 
L 217.862985 256.53384 
L 218.260077 250.395321 
L 218.657168 253.60998 
L 219.05426 235.17953 
L 219.451351 189.520789 
L 219.848443 157.843117 
L 220.245534 156.639079 
L 220.642626 137.345205 
L 221.436809 69.846581 
L 221.8339 93.572886 
L 222.230992 132.404971 
L 222.628083 152.663135 
L 223.025175 164.541954 
L 223.422266 149.781864 
L 223.819358 182.618148 
L 224.216449 189.819249 
L 225.010632 158.600542 
L 225.407724 152.607963 
L 225.804815 157.306841 
L 226.201907 212.99871 
L 226.598998 224.240199 
L 226.99609 245.334843 
L 227.393181 255.013518 
L 227.790273 247.062637 
L 228.187364 270.87544 
L 228.584456 269.397538 
L 229.77573 195.415199 
L 230.172822 169.222587 
L 230.569913 154.356506 
L 230.967004 158.922223 
L 231.364096 152.132603 
L 231.761187 153.296408 
L 232.158279 147.063269 
L 232.55537 143.573347 
L 232.952462 152.481148 
L 233.349553 157.215673 
L 233.746645 152.555668 
L 234.143736 126.170057 
L 234.540828 132.499337 
L 234.937919 136.305014 
L 235.335011 152.779087 
L 236.129194 249.561528 
L 236.526285 278.234379 
L 236.923377 278.552047 
L 237.320468 277.723651 
L 237.71756 285.297956 
L 238.114651 282.84267 
L 239.305926 247.124308 
L 239.703017 237.790762 
L 240.100109 217.934207 
L 240.4972 206.491259 
L 240.894292 188.298455 
L 241.291383 187.778254 
L 241.688475 209.76288 
L 242.482658 178.239308 
L 242.879749 189.860892 
L 243.276841 159.937735 
L 243.673932 181.705724 
L 244.071024 186.528989 
L 244.468115 205.910112 
L 244.865207 218.87691 
L 245.262298 251.3133 
L 245.65939 263.499947 
L 246.056481 269.255423 
L 246.453573 261.549492 
L 246.850664 269.947701 
L 247.247756 272.062637 
L 247.644847 252.23736 
L 248.041939 204.729798 
L 248.43903 176.440394 
L 248.836122 135.156526 
L 249.233213 130.478952 
L 249.630305 118.377084 
L 250.027396 87.774786 
L 250.821579 139.707243 
L 251.218671 158.508848 
L 251.615762 159.068943 
L 252.012854 156.460739 
L 252.409945 166.962922 
L 252.807037 184.147332 
L 253.204128 161.61885 
L 253.60122 185.541175 
L 253.998311 179.999535 
L 254.395403 210.236444 
L 254.792494 227.270606 
L 255.189586 256.18279 
L 255.586677 264.906576 
L 255.983769 268.826084 
L 256.38086 270.257206 
L 256.777952 260.909628 
L 257.175043 240.76356 
L 257.969226 148.193317 
L 258.366318 154.602794 
L 258.763409 118.458633 
L 259.160501 115.467788 
L 259.557592 90.62505 
L 259.954684 110.289585 
L 260.351775 109.513717 
L 260.748866 117.386006 
L 261.145958 128.397471 
L 261.940141 176.055745 
L 262.337232 169.446343 
L 262.734324 156.455963 
L 263.131415 156.656231 
L 263.528507 167.503534 
L 264.32269 207.903532 
L 265.116873 232.859527 
L 265.911056 239.002352 
L 266.308147 249.665537 
L 266.705239 220.671279 
L 267.10233 181.634417 
L 267.499422 130.632452 
L 267.896513 127.370758 
L 268.293605 121.498156 
L 268.690696 110.20029 
L 269.087788 85.214232 
L 269.484879 121.864909 
L 269.881971 125.267835 
L 270.676154 140.482404 
L 271.073245 163.348767 
L 271.470337 167.912898 
L 271.867428 134.024092 
L 272.661611 170.220212 
L 273.058703 171.208387 
L 273.455794 214.108213 
L 274.249977 257.932521 
L 274.647069 265.426372 
L 275.04416 265.601231 
L 275.441252 268.448661 
L 275.838343 265.181658 
L 276.235435 247.542032 
L 277.029618 162.858592 
L 277.823801 125.746771 
L 278.220892 90.930136 
L 278.617984 82.139687 
L 279.412167 134.241002 
L 279.809258 133.885101 
L 280.20635 134.219079 
L 280.603441 128.217235 
L 281.000533 166.56034 
L 281.397624 156.098069 
L 282.191807 159.929383 
L 282.588899 153.636732 
L 282.98599 188.205038 
L 283.383082 203.278731 
L 283.780173 226.117442 
L 284.177265 222.951906 
L 284.574356 231.43565 
L 284.971448 231.523384 
L 285.368539 237.967812 
L 285.765631 217.559865 
L 286.162722 180.793989 
L 287.353997 106.153208 
L 287.751088 98.801715 
L 288.14818 87.530539 
L 288.545271 100.115834 
L 288.942363 123.451639 
L 289.339454 135.437448 
L 289.736545 165.280313 
L 290.133637 144.615716 
L 290.530728 171.474434 
L 290.92782 159.365391 
L 291.324911 168.133627 
L 291.722003 119.566837 
L 292.119094 146.247968 
L 292.516186 146.972019 
L 292.913277 186.877416 
L 293.310369 243.241815 
L 293.70746 264.136907 
L 294.104552 270.31108 
L 294.501643 265.36283 
L 294.898735 269.539305 
L 295.295826 263.655908 
L 295.692918 241.677999 
L 296.487101 188.456373 
L 296.884192 170.820468 
L 297.678375 146.701283 
L 298.075467 161.58824 
L 298.472558 150.918842 
L 298.86965 161.899452 
L 299.266741 165.361221 
L 300.060924 134.757895 
L 300.458016 132.122624 
L 300.855107 113.239281 
L 301.252199 104.304279 
L 301.64929 113.118133 
L 302.840565 236.438148 
L 303.237656 268.164804 
L 303.634748 271.871196 
L 304.031839 272.39115 
L 304.428931 278.188192 
L 304.826022 275.68105 
L 305.223114 257.423844 
L 305.620205 254.889291 
L 306.017297 234.512967 
L 306.414388 229.208417 
L 306.81148 211.144255 
L 307.208571 202.039972 
L 307.605663 185.441224 
L 308.002754 180.598956 
L 308.399846 166.37242 
L 308.796937 189.265164 
L 309.194029 170.780529 
L 309.59112 179.726284 
L 309.988212 179.122243 
L 310.385303 164.307609 
L 310.782395 174.835806 
L 311.179486 207.740954 
L 311.576578 230.562355 
L 312.370761 264.551099 
L 312.767852 272.417752 
L 313.164944 276.200852 
L 313.562035 275.639244 
L 314.356218 246.33563 
L 315.150401 174.773576 
L 315.944584 135.345186 
L 316.341676 109.014387 
L 316.738767 97.646674 
L 317.135859 125.73532 
L 317.53295 144.442896 
L 317.930042 147.753919 
L 318.327133 158.162163 
L 318.724225 153.881374 
L 319.121316 177.634678 
L 319.518407 186.462087 
L 319.915499 180.679156 
L 320.31259 181.74422 
L 320.709682 201.499405 
L 321.106773 204.290891 
L 321.503865 234.9591 
L 321.900956 250.909793 
L 323.489322 268.009262 
L 325.077688 147.111916 
L 325.47478 133.416643 
L 325.871871 128.418523 
L 326.268963 103.997743 
L 326.666054 106.073473 
L 327.063146 128.241938 
L 327.460237 126.948905 
L 327.857329 136.524144 
L 328.25442 153.308224 
L 328.651512 178.610591 
L 329.048603 172.808736 
L 329.445695 165.217602 
L 329.842786 154.094012 
L 330.239878 179.652569 
L 330.636969 216.794109 
L 331.034061 224.750711 
L 331.431152 251.496624 
L 332.225335 265.75726 
L 332.622427 268.521586 
L 333.019518 263.390372 
L 333.41661 244.70564 
L 333.813701 198.274323 
L 334.210793 168.853292 
L 335.402067 124.061785 
L 335.799159 98.558505 
L 336.593342 181.931438 
L 337.387525 210.892755 
L 337.784616 196.915769 
L 338.181708 206.731073 
L 338.578799 210.092371 
L 338.975891 198.542631 
L 339.770074 218.721117 
L 340.564257 261.587035 
L 340.961348 274.848715 
L 341.35844 272.808548 
L 341.755531 289.113829 
L 342.152623 290.489068 
L 342.549714 290.447218 
L 342.946806 269.811837 
L 345.329355 114.488225 
L 345.726446 115.464603 
L 346.123538 116.7723 
L 346.520629 149.024212 
L 346.917721 156.15854 
L 347.314812 180.24201 
L 347.711904 176.136615 
L 348.506086 160.003898 
L 348.903178 158.712674 
L 349.300269 164.132222 
L 350.094452 245.810112 
L 350.491544 262.519233 
L 350.888635 266.31674 
L 351.285727 273.87387 
L 351.682818 273.575307 
L 352.07991 272.469425 
L 352.477001 252.529927 
L 353.271184 176.107815 
L 354.065367 155.022973 
L 354.462459 140.146186 
L 354.85955 98.010164 
L 355.256642 105.495462 
L 355.653733 138.433152 
L 356.050825 146.088054 
L 356.447916 169.092042 
L 356.845008 182.219855 
L 357.639191 192.047609 
L 358.830465 169.264031 
L 359.227557 171.765604 
L 359.624648 224.817313 
L 360.418831 268.371975 
L 360.815923 273.689633 
L 361.213014 275.971085 
L 361.610106 276.461455 
L 362.007197 269.007776 
L 362.404289 251.805467 
L 363.198472 196.369416 
L 363.595563 193.371173 
L 363.992655 186.083776 
L 364.389746 193.368223 
L 364.786838 179.079721 
L 365.183929 172.97517 
L 365.581021 181.840313 
L 365.978112 173.886843 
L 366.772295 170.58146 
L 367.169387 178.348489 
L 367.566478 163.949832 
L 367.96357 155.869192 
L 368.360661 138.396156 
L 368.757753 132.244143 
L 369.154844 208.249996 
L 369.551936 253.518841 
L 369.949027 276.238762 
L 370.346119 278.044912 
L 371.140302 278.06179 
L 371.537393 276.94847 
L 372.331576 251.639728 
L 372.728668 250.332221 
L 373.125759 235.642983 
L 373.919942 193.133703 
L 374.317034 208.52082 
L 374.714125 209.979026 
L 375.111217 203.877498 
L 375.508308 194.329303 
L 376.302491 205.759622 
L 376.699583 192.191425 
L 377.096674 185.587322 
L 377.890857 219.702791 
L 378.68504 258.78923 
L 379.082131 273.286861 
L 379.876314 279.370747 
L 380.273406 280.369339 
L 380.670497 271.539638 
L 381.067589 253.247977 
L 381.46468 212.584317 
L 381.861772 189.140657 
L 382.258863 180.344235 
L 382.655955 135.968508 
L 383.053046 140.67432 
L 383.450138 110.310675 
L 383.847229 119.254909 
L 384.244321 141.60891 
L 385.038504 171.721802 
L 385.435595 160.75819 
L 385.832687 183.384011 
L 386.229778 190.776528 
L 386.62687 193.59421 
L 387.023961 198.520045 
L 387.421053 214.568507 
L 387.818144 197.601265 
L 388.215236 234.562358 
L 388.612327 239.774343 
L 389.009419 261.526841 
L 389.40651 269.177242 
L 389.803602 263.267304 
L 390.200693 259.272152 
L 390.597785 244.591572 
L 390.994876 195.825934 
L 391.391968 164.658996 
L 391.789059 151.179261 
L 392.186151 143.538056 
L 392.583242 129.480419 
L 392.980334 91.995337 
L 393.774517 138.97371 
L 394.171608 137.508154 
L 394.5687 150.348262 
L 394.965791 151.376565 
L 396.157066 177.225816 
L 396.554157 181.064133 
L 396.951249 188.091143 
L 397.34834 217.122454 
L 398.142523 252.217141 
L 398.539615 267.835718 
L 398.936706 269.847186 
L 399.333798 269.366781 
L 399.730889 264.379958 
L 400.127981 239.919541 
L 400.525072 196.292175 
L 400.922164 173.931134 
L 401.319255 167.477498 
L 401.716347 138.840532 
L 402.113438 137.033016 
L 402.51053 114.269205 
L 402.907621 123.622134 
L 403.304713 152.833118 
L 403.701804 148.379241 
L 404.098896 149.932506 
L 404.495987 170.053331 
L 404.893079 183.746978 
L 405.687262 174.348677 
L 406.084353 166.879846 
L 406.481445 180.719574 
L 407.275627 243.936236 
L 407.672719 262.312795 
L 408.466902 271.137007 
L 408.863993 268.036529 
L 409.261085 268.203636 
L 409.658176 246.223059 
L 410.055268 204.138639 
L 410.452359 173.914224 
L 410.849451 156.210951 
L 412.040725 122.675459 
L 412.437817 136.324406 
L 412.834908 141.979999 
L 413.232 149.774702 
L 413.629091 161.024265 
L 414.026183 183.485203 
L 414.820366 193.21167 
L 415.614549 176.230482 
L 416.01164 180.564084 
L 416.408732 217.885007 
L 416.805823 244.226274 
L 417.202915 261.358148 
L 417.600006 269.501981 
L 417.997098 274.061049 
L 418.791281 276.629483 
L 419.188372 258.226347 
L 419.585464 204.966303 
L 420.379647 168.061406 
L 420.776738 166.679858 
L 421.570921 121.256773 
L 421.968013 130.449584 
L 422.365104 147.151747 
L 423.159287 169.931918 
L 423.556379 194.991678 
L 423.95347 195.860345 
L 424.350562 171.375677 
L 424.747653 158.154106 
L 425.144745 161.982352 
L 425.541836 162.388966 
L 425.938928 167.936665 
L 426.336019 225.531469 
L 426.733111 256.807523 
L 427.130202 273.098109 
L 427.527294 275.687381 
L 427.924385 265.163532 
L 428.321477 280.420787 
L 428.718568 272.946192 
L 429.11566 259.913948 
L 429.512751 242.785603 
L 429.909843 231.808006 
L 430.704026 188.103004 
L 431.101117 187.68573 
L 431.498209 156.372191 
L 431.8953 151.201592 
L 432.292392 153.691186 
L 432.689483 158.281889 
L 433.086575 172.277721 
L 433.483666 171.553745 
L 433.880758 156.242095 
L 434.277849 145.615608 
L 434.674941 119.755532 
L 435.072032 142.944371 
L 435.469124 174.00376 
L 436.263307 253.155497 
L 436.660398 264.269418 
L 437.057489 282.342478 
L 437.454581 282.979816 
L 437.851672 285.759596 
L 438.248764 287.026583 
L 439.042947 267.448884 
L 439.440038 252.029052 
L 439.83713 243.06352 
L 441.425496 180.593408 
L 441.822587 179.406569 
L 442.219679 190.35698 
L 442.61677 178.310565 
L 443.013862 174.554316 
L 443.410953 189.643335 
L 443.808045 191.238519 
L 444.205136 207.53718 
L 444.602228 215.85449 
L 445.793502 269.431521 
L 446.190594 277.992744 
L 446.587685 278.7862 
L 446.984777 281.427382 
L 447.381868 276.754746 
L 447.77896 258.43119 
L 448.176051 208.112087 
L 448.573143 185.159692 
L 448.970234 169.807333 
L 449.367326 138.429634 
L 450.161509 108.261345 
L 450.955692 148.007129 
L 451.352783 140.908822 
L 452.544058 167.414151 
L 452.941149 165.124359 
L 453.338241 167.826038 
L 453.735332 161.022033 
L 454.132424 164.54133 
L 454.926607 234.66106 
L 455.72079 261.520426 
L 456.117881 263.68279 
L 456.514973 260.938293 
L 456.912064 247.959833 
L 457.309156 230.482795 
L 458.103339 138.344271 
L 458.50043 132.731386 
L 459.294613 103.191363 
L 459.691705 74.076128 
L 460.088796 84.088634 
L 460.485888 110.542505 
L 461.280071 131.838976 
L 461.677162 138.101787 
L 462.074254 152.581287 
L 462.471345 149.220782 
L 462.868437 154.328371 
L 463.265528 169.619971 
L 463.66262 176.928168 
L 464.456803 238.070123 
L 464.853894 253.418764 
L 465.250986 263.445927 
L 465.648077 260.134125 
L 466.045168 266.847992 
L 466.44226 261.061054 
L 466.839351 231.517876 
L 467.236443 182.432119 
L 467.633534 163.411658 
L 468.427717 106.741074 
L 468.824809 102.697495 
L 469.2219 71.069716 
L 469.618992 82.388522 
L 470.016083 78.921595 
L 470.413175 104.770391 
L 471.604449 153.86007 
L 472.001541 147.667714 
L 472.398632 146.93366 
L 472.795724 149.813903 
L 473.192815 164.553982 
L 473.589907 195.855211 
L 473.986998 238.41253 
L 474.38409 257.335814 
L 474.781181 256.16212 
L 475.178273 261.131333 
L 475.575364 256.884925 
L 475.972456 253.858564 
L 476.369547 225.984289 
L 477.16373 140.791209 
L 477.957913 87.469613 
L 478.752096 46.666243 
L 479.149188 61.601518 
L 479.546279 86.220959 
L 479.943371 96.005889 
L 480.340462 102.111451 
L 481.134645 137.753521 
L 481.531737 132.137952 
L 481.928828 123.273294 
L 482.32592 147.542381 
L 482.723011 141.37343 
L 483.120103 201.549154 
L 483.517194 213.671066 
L 483.914286 244.399363 
L 484.311377 254.28868 
L 484.708469 259.356122 
L 485.10556 261.462341 
L 485.502652 256.175813 
L 485.899743 223.043525 
L 486.693926 136.504486 
L 487.091018 118.767553 
L 487.885201 104.518222 
L 488.282292 77.110513 
L 488.679384 91.507813 
L 489.076475 117.913205 
L 489.473567 118.872975 
L 489.870658 130.095759 
L 490.664841 181.042828 
L 491.061933 176.331913 
L 491.459024 157.618493 
L 491.856116 166.316284 
L 492.253207 152.995003 
L 493.04739 225.253739 
L 493.444482 259.16912 
L 493.841573 270.790974 
L 494.238665 274.998509 
L 494.635756 277.060521 
L 495.032848 275.49444 
L 495.429939 269.640231 
L 496.621213 200.294794 
L 497.018305 171.780391 
L 497.415396 168.579395 
L 497.812488 147.990975 
L 498.209579 149.323955 
L 498.606671 142.281677 
L 499.400854 149.90644 
L 499.797945 140.079436 
L 500.195037 147.50691 
L 500.592128 150.394232 
L 500.98922 157.864979 
L 501.386311 140.62502 
L 501.783403 142.459965 
L 502.180494 170.639936 
L 502.974677 256.219609 
L 503.371769 273.763899 
L 503.76886 277.488871 
L 504.563043 281.127328 
L 504.960135 278.95843 
L 505.357226 268.940532 
L 505.754318 255.177475 
L 506.151409 246.81408 
L 506.945592 206.218362 
L 507.342684 199.904759 
L 507.739775 190.825454 
L 508.136867 188.676254 
L 508.533958 173.491826 
L 508.93105 163.544567 
L 509.328141 164.962179 
L 509.725233 171.293906 
L 510.122324 180.850129 
L 510.519416 177.115271 
L 510.916507 194.384372 
L 511.313599 219.163616 
L 511.71069 234.082032 
L 512.504873 250.25162 
L 512.901965 265.612483 
L 513.299056 270.673367 
L 513.696148 273.437209 
L 514.093239 270.048682 
L 514.490331 248.054624 
L 515.284514 185.527669 
L 515.681605 171.50329 
L 516.078697 147.733791 
L 516.475788 138.126032 
L 516.87288 108.067622 
L 517.269971 130.427292 
L 517.667063 139.24244 
L 518.461246 143.079501 
L 518.858337 157.175365 
L 519.65252 168.21482 
L 520.049612 156.65868 
L 520.446703 156.500269 
L 520.843795 164.280227 
L 521.240886 195.099928 
L 521.637978 240.617932 
L 522.035069 255.288388 
L 522.829252 268.24167 
L 523.226344 266.412652 
L 523.623435 259.166096 
L 524.020527 244.362082 
L 524.814709 171.619238 
L 525.608892 128.820357 
L 526.005984 126.394348 
L 526.403075 103.717535 
L 526.800167 110.356186 
L 527.197258 112.030201 
L 527.59435 102.881952 
L 527.991441 117.09335 
L 528.388533 147.106791 
L 528.785624 161.773998 
L 529.182716 158.158796 
L 529.579807 144.394675 
L 529.976899 155.717763 
L 530.37399 162.629005 
L 530.771082 207.55286 
L 531.565265 250.820863 
L 531.962356 260.052656 
L 532.359448 265.315176 
L 532.756539 265.697392 
L 533.153631 260.416233 
L 533.550722 237.517889 
L 534.344905 165.260341 
L 535.139088 131.538826 
L 535.933271 95.605939 
L 536.330363 113.231437 
L 536.727454 136.861363 
L 537.124546 131.834156 
L 537.521637 150.247249 
L 537.918729 152.996212 
L 538.31582 171.823492 
L 538.712912 174.392751 
L 539.110003 167.022353 
L 539.507095 155.59384 
L 539.904186 175.254992 
L 540.698369 238.721304 
L 541.095461 257.743998 
L 541.492552 263.734675 
L 541.889644 265.608604 
L 542.286735 270.932244 
L 542.683827 264.429955 
L 543.080918 248.608881 
L 543.875101 183.542128 
L 544.272193 159.951115 
L 544.669284 147.310938 
L 545.066376 143.08715 
L 545.463467 115.032468 
L 545.860559 121.870576 
L 546.25765 142.245699 
L 547.051833 151.436855 
L 547.448925 159.528851 
L 547.846016 160.327882 
L 548.243108 172.021308 
L 548.640199 154.283086 
L 549.037291 156.608411 
L 549.434382 174.873001 
L 550.625657 260.839562 
L 551.022748 270.503014 
L 551.41984 273.127129 
L 551.816931 274.881522 
L 552.214023 269.218039 
L 552.611114 252.617789 
L 553.405297 187.554095 
L 554.993663 110.020481 
L 555.390754 112.680719 
L 555.787846 121.835547 
L 556.184937 127.762893 
L 556.97912 149.062336 
L 557.376212 190.167253 
L 557.773303 197.877605 
L 558.170395 194.484292 
L 558.567486 185.467592 
L 558.964578 171.920148 
L 559.758761 237.985885 
L 560.552944 269.602824 
L 560.950035 272.685879 
L 561.347127 269.897847 
L 561.744218 273.735753 
L 562.14131 266.639358 
L 564.126767 176.851496 
L 564.523859 187.771409 
L 564.92095 169.786277 
L 565.318042 166.113366 
L 565.715133 171.417182 
L 566.112225 166.831 
L 566.906408 191.162603 
L 567.303499 183.211112 
L 567.700591 184.920602 
L 568.097682 188.125491 
L 568.494774 193.742531 
L 568.891865 213.232895 
L 569.288957 243.005322 
L 569.686048 257.400585 
L 570.08314 281.772082 
L 570.877323 290.528875 
L 571.274414 292.29235 
L 572.068597 285.624304 
L 573.656963 231.629826 
L 574.054055 211.79398 
L 574.451146 198.209444 
L 574.848238 204.228764 
L 575.245329 202.705252 
L 575.642421 202.94941 
L 576.039512 210.898639 
L 576.436604 223.370835 
L 576.833695 227.115838 
L 577.230787 224.08399 
L 577.627878 222.610801 
L 578.819153 264.991439 
L 579.216244 259.638481 
L 579.613336 260.966243 
L 580.010427 283.597341 
L 580.407519 291.557588 
L 580.80461 289.168063 
L 581.201702 276.297709 
L 583.58425 154.222392 
L 583.981342 166.278056 
L 584.378433 161.617256 
L 584.775525 167.204486 
L 585.172616 175.583205 
L 585.966799 217.080415 
L 586.363891 224.716158 
L 586.760982 225.769456 
L 587.158074 230.817939 
L 587.555165 238.036647 
L 588.74644 284.412331 
L 589.540623 293.591545 
L 589.937714 290.748282 
L 590.334806 285.066946 
L 590.731897 281.849753 
L 591.128989 272.253343 
L 591.52608 247.08048 
L 591.923172 234.167001 
L 592.320263 214.174433 
L 592.717355 221.158907 
L 593.114446 220.249841 
L 593.511538 222.16978 
L 593.908629 229.223964 
L 594.305721 230.503638 
L 594.702812 250.870198 
L 595.099904 255.343979 
L 595.496995 272.238668 
L 595.894087 278.705062 
L 596.291178 276.568657 
L 596.68827 271.884822 
L 597.085361 274.477724 
L 597.482453 277.862257 
L 597.879544 282.552176 
L 598.276636 285.17119 
L 598.673727 293.099353 
L 599.070819 293.614299 
L 599.46791 297.100385 
L 599.865002 295.880302 
L 600.262093 296.564519 
L 600.659185 295.126172 
L 601.056276 294.805709 
L 601.453368 292.533774 
L 601.850459 287.871287 
L 602.247551 287.830672 
L 602.644642 289.634215 
L 603.438825 281.929729 
L 603.835917 283.365191 
L 604.233008 286.39847 
L 604.6301 283.497631 
L 605.027191 283.004695 
L 605.424283 275.127277 
L 605.821374 274.400024 
L 606.218466 275.842316 
L 606.615557 276.80903 
L 607.012649 280.982506 
L 607.806832 303.017948 
L 608.203923 306.063078 
L 608.998106 304.334115 
L 609.395198 303.430026 
L 609.792289 302.802713 
L 610.189381 301.422736 
L 610.586472 298.941657 
L 611.380655 284.786326 
L 611.777747 284.928908 
L 612.174838 288.675902 
L 612.571929 279.238525 
L 612.969021 280.583629 
L 613.763204 270.833784 
L 614.160295 264.713171 
L 614.954478 266.671093 
L 615.35157 271.420685 
L 615.748661 277.786003 
L 616.145753 274.064271 
L 616.542844 279.875006 
L 616.939936 296.218706 
L 617.337027 303.412251 
L 618.13121 306.563522 
L 618.528302 306.455891 
L 618.925393 304.812141 
L 619.322485 301.425043 
L 619.719576 291.029873 
L 620.513759 257.594319 
L 620.910851 254.946189 
L 621.307942 233.147053 
L 621.705034 222.613847 
L 622.102125 224.023096 
L 622.499217 230.162655 
L 622.896308 223.814469 
L 623.2934 230.89133 
L 623.690491 242.730503 
L 624.087583 251.1097 
L 624.484674 247.208879 
L 624.881766 249.485892 
L 625.278857 250.119817 
L 625.675949 248.87329 
L 626.07304 263.636219 
L 626.867223 300.849334 
L 627.264315 307.719293 
L 627.661406 307.422043 
L 628.058498 309.550594 
L 628.455589 309.505599 
L 628.852681 303.057363 
L 629.249772 300.363983 
L 629.646864 293.998034 
L 630.043955 285.585201 
L 630.838138 255.712995 
L 631.632321 250.314057 
L 632.029413 253.010442 
L 632.426504 254.426661 
L 632.823596 246.70021 
L 633.220687 249.335874 
L 633.617779 256.207376 
L 634.411962 263.38924 
L 634.809053 263.242355 
L 635.206145 262.102652 
L 635.603236 272.023125 
L 636.397419 303.648844 
L 636.794511 304.067529 
L 637.191602 308.634255 
L 637.588694 307.233119 
L 637.985785 308.930466 
L 638.382877 309.449817 
L 638.779968 305.48778 
L 639.17706 303.260696 
L 639.574151 296.433188 
L 639.971243 292.70924 
L 640.368334 283.777429 
L 640.765426 282.44801 
L 641.559609 269.126095 
L 641.9567 260.497722 
L 642.353791 248.604771 
L 642.750883 259.131497 
L 643.147974 257.074543 
L 643.545066 259.306812 
L 643.942157 253.725469 
L 645.133432 285.507808 
L 646.324706 306.4014 
L 646.721798 307.792255 
L 647.118889 304.39206 
L 647.515981 306.332773 
L 647.913072 307.436992 
L 648.707255 288.997709 
L 649.89853 247.576103 
L 650.295621 238.265723 
L 651.089804 247.877679 
L 651.486896 237.90837 
L 651.883987 240.146218 
L 652.281079 254.990885 
L 652.67817 255.848492 
L 653.075262 260.119489 
L 653.869445 279.169492 
L 654.266536 284.024046 
L 654.663628 286.436772 
L 655.060719 295.073395 
L 655.457811 306.925072 
L 655.854902 310.353766 
L 656.251994 311.024307 
L 656.649085 310.80169 
L 657.046177 312.034856 
L 657.443268 307.954131 
L 657.84036 292.916659 
L 658.237451 286.60914 
L 658.634543 277.540898 
L 659.031634 274.663784 
L 659.825817 256.861405 
L 660.222909 263.117041 
L 660.62 262.694529 
L 661.017092 274.007286 
L 661.414183 272.841223 
L 662.208366 285.075893 
L 662.605458 283.069501 
L 663.002549 267.655345 
L 663.399641 272.63491 
L 663.796732 280.340977 
L 664.193824 272.02748 
L 664.590915 276.467436 
L 664.988007 284.579055 
L 665.385098 297.969384 
L 665.78219 305.980493 
L 666.179281 309.393782 
L 666.576373 311.099235 
L 667.370556 306.691541 
L 667.767647 306.653239 
L 668.164739 300.901948 
L 668.56183 300.164707 
L 668.958922 300.887671 
L 669.356013 296.842064 
L 669.753105 296.35041 
L 670.150196 294.867812 
L 670.547288 292.508716 
L 670.944379 285.468356 
L 671.34147 281.337385 
L 671.738562 280.521185 
L 672.135653 275.081404 
L 672.532745 281.139531 
L 672.929836 289.606165 
L 673.326928 287.869824 
L 673.326928 287.869824 
" clip-path="url(#p94fb8091e2)" style="fill: none; stroke: #0000ff; stroke-width: 1.5; stroke-linecap: square"/>
   </g>
   <g id="patch_3">
    <path d="M 53.328125 325.303287 
L 53.328125 33.397812 
" style="fill: none; stroke: #000000; stroke-width: 0.8; stroke-linejoin: miter; stroke-linecap: square"/>
   </g>
   <g id="patch_4">
    <path d="M 702.85068 325.303287 
L 702.85068 33.397812 
" style="fill: none; stroke: #000000; stroke-width: 0.8; stroke-linejoin: miter; stroke-linecap: square"/>
   </g>
   <g id="patch_5">
    <path d="M 53.328125 325.303287 
L 702.85068 325.303287 
" style="fill: none; stroke: #000000; stroke-width: 0.8; stroke-linejoin: miter; stroke-linecap: square"/>
   </g>
   <g id="patch_6">
    <path d="M 53.328125 33.397812 
L 702.85068 33.397812 
" style="fill: none; stroke: #000000; stroke-width: 0.8; stroke-linejoin: miter; stroke-linecap: square"/>
   </g>
   <g id="text_21">
    <!-- Tráfico a lo largo del tiempo - Celda 4957 -->
    <g transform="translate(233.65534 18.397812)scale(0.14 -0.14)">
     <defs>
      <path id="DejaVuSans-61" d="M 2194 1759 
Q 1497 1759 1228 1600 
Q 959 1441 959 1056 
Q 959 750 1161 570 
Q 1363 391 1709 391 
Q 2188 391 2477 730 
Q 2766 1069 2766 1631 
L 2766 1759 
L 2194 1759 
z
M 3341 1997 
L 3341 0 
L 2766 0 
L 2766 531 
Q 2569 213 2275 61 
Q 1981 -91 1556 -91 
Q 1019 -91 701 211 
Q 384 513 384 1019 
Q 384 1609 779 1909 
Q 1175 2209 1959 2209 
L 2766 2209 
L 2766 2266 
Q 2766 2663 2505 2880 
Q 2244 3097 1772 3097 
Q 1472 3097 1187 3025 
Q 903 2953 641 2809 
L 641 3341 
Q 956 3463 1253 3523 
Q 1550 3584 1831 3584 
Q 2591 3584 2966 3190 
Q 3341 2797 3341 1997 
z
" transform="scale(0.015625)"/>
      <path id="DejaVuSans-67" d="M 2906 1791 
Q 2906 2416 2648 2759 
Q 2391 3103 1925 3103 
Q 1463 3103 1205 2759 
Q 947 2416 947 1791 
Q 947 1169 1205 825 
Q 1463 481 1925 481 
Q 2391 481 2648 825 
Q 2906 1169 2906 1791 
z
M 3481 434 
Q 3481 -459 3084 -895 
Q 2688 -1331 1869 -1331 
Q 1566 -1331 1297 -1286 
Q 1028 -1241 775 -1147 
L 775 -588 
Q 1028 -725 1275 -790 
Q 1522 -856 1778 -856 
Q 2344 -856 2625 -561 
Q 2906 -266 2906 331 
L 2906 616 
Q 2728 306 2450 153 
Q 2172 0 1784 0 
Q 1141 0 747 490 
Q 353 981 353 1791 
Q 353 2603 747 3093 
Q 1141 3584 1784 3584 
Q 2172 3584 2450 3431 
Q 2728 3278 2906 2969 
L 2906 3500 
L 3481 3500 
L 3481 434 
z
" transform="scale(0.015625)"/>
      <path id="DejaVuSans-74" d="M 1172 4494 
L 1172 3500 
L 2356 3500 
L 2356 3053 
L 1172 3053 
L 1172 1153 
Q 1172 725 1289 603 
Q 1406 481 1766 481 
L 2356 481 
L 2356 0 
L 1766 0 
Q 1100 0 847 248 
Q 594 497 594 1153 
L 594 3053 
L 172 3053 
L 172 3500 
L 594 3500 
L 594 4494 
L 1172 4494 
z
" transform="scale(0.015625)"/>
      <path id="DejaVuSans-43" d="M 4122 4306 
L 4122 3641 
Q 3803 3938 3442 4084 
Q 3081 4231 2675 4231 
Q 1875 4231 1450 3742 
Q 1025 3253 1025 2328 
Q 1025 1406 1450 917 
Q 1875 428 2675 428 
Q 3081 428 3442 575 
Q 3803 722 4122 1019 
L 4122 359 
Q 3791 134 3420 21 
Q 3050 -91 2638 -91 
Q 1578 -91 968 557 
Q 359 1206 359 2328 
Q 359 3453 968 4101 
Q 1578 4750 2638 4750 
Q 3056 4750 3426 4639 
Q 3797 4528 4122 4306 
z
" transform="scale(0.015625)"/>
     </defs>
     <use xlink:href="#DejaVuSans-54"/>
     <use xlink:href="#DejaVuSans-72" x="46.333984"/>
     <use xlink:href="#DejaVuSans-e1" x="87.447266"/>
     <use xlink:href="#DejaVuSans-66" x="148.726562"/>
     <use xlink:href="#DejaVuSans-69" x="183.931641"/>
     <use xlink:href="#DejaVuSans-63" x="211.714844"/>
     <use xlink:href="#DejaVuSans-6f" x="266.695312"/>
     <use xlink:href="#DejaVuSans-20" x="327.876953"/>
     <use xlink:href="#DejaVuSans-61" x="359.664062"/>
     <use xlink:href="#DejaVuSans-20" x="420.943359"/>
     <use xlink:href="#DejaVuSans-6c" x="452.730469"/>
     <use xlink:href="#DejaVuSans-6f" x="480.513672"/>
     <use xlink:href="#DejaVuSans-20" x="541.695312"/>
     <use xlink:href="#DejaVuSans-6c" x="573.482422"/>
     <use xlink:href="#DejaVuSans-61" x="601.265625"/>
     <use xlink:href="#DejaVuSans-72" x="662.544922"/>
     <use xlink:href="#DejaVuSans-67" x="701.908203"/>
     <use xlink:href="#DejaVuSans-6f" x="765.384766"/>
     <use xlink:href="#DejaVuSans-20" x="826.566406"/>
     <use xlink:href="#DejaVuSans-64" x="858.353516"/>
     <use xlink:href="#DejaVuSans-65" x="921.830078"/>
     <use xlink:href="#DejaVuSans-6c" x="983.353516"/>
     <use xlink:href="#DejaVuSans-20" x="1011.136719"/>
     <use xlink:href="#DejaVuSans-74" x="1042.923828"/>
     <use xlink:href="#DejaVuSans-69" x="1082.132812"/>
     <use xlink:href="#DejaVuSans-65" x="1109.916016"/>
     <use xlink:href="#DejaVuSans-6d" x="1171.439453"/>
     <use xlink:href="#DejaVuSans-70" x="1268.851562"/>
     <use xlink:href="#DejaVuSans-6f" x="1332.328125"/>
     <use xlink:href="#DejaVuSans-20" x="1393.509766"/>
     <use xlink:href="#DejaVuSans-2d" x="1425.296875"/>
     <use xlink:href="#DejaVuSans-20" x="1461.380859"/>
     <use xlink:href="#DejaVuSans-43" x="1493.167969"/>
     <use xlink:href="#DejaVuSans-65" x="1562.992188"/>
     <use xlink:href="#DejaVuSans-6c" x="1624.515625"/>
     <use xlink:href="#DejaVuSans-64" x="1652.298828"/>
     <use xlink:href="#DejaVuSans-61" x="1715.775391"/>
     <use xlink:href="#DejaVuSans-20" x="1777.054688"/>
     <use xlink:href="#DejaVuSans-34" x="1808.841797"/>
     <use xlink:href="#DejaVuSans-39" x="1872.464844"/>
     <use xlink:href="#DejaVuSans-35" x="1936.087891"/>
     <use xlink:href="#DejaVuSans-37" x="1999.710938"/>
    </g>
   </g>
  </g>
 </g>
 <defs>
  <clipPath id="p94fb8091e2">
   <rect x="53.328125" y="33.397812" width="649.522555" height="291.905474"/>
  </clipPath>
 </defs>
</svg>
